<?xml version="1.0" encoding="UTF-8" standalone="no"?>
<!-- Created with Inkscape (http://www.inkscape.org/) -->

<svg
   xmlns:dc="http://purl.org/dc/elements/1.1/"
   xmlns:cc="http://creativecommons.org/ns#"
   xmlns:rdf="http://www.w3.org/1999/02/22-rdf-syntax-ns#"
   xmlns:svg="http://www.w3.org/2000/svg"
   xmlns="http://www.w3.org/2000/svg"
   xmlns:sodipodi="http://sodipodi.sourceforge.net/DTD/sodipodi-0.dtd"
   xmlns:inkscape="http://www.inkscape.org/namespaces/inkscape"
   width="744.09448819"
   height="1052.3622047"
   id="svg2985"
   version="1.1"
   inkscape:version="0.48.2 r9819"
   sodipodi:docname="SmartNixieTubeEnclosure.svg">
  <defs
     id="defs2987" />
  <sodipodi:namedview
     id="base"
     pagecolor="#ffffff"
     bordercolor="#ffffff"
     borderopacity="0.0"
     inkscape:pageopacity="0.0"
     inkscape:pageshadow="0"
     inkscape:zoom="0.37947346"
     inkscape:cx="1797.206"
     inkscape:cy="-2020.2129"
     inkscape:document-units="px"
     inkscape:current-layer="layer1"
     showgrid="false"
     inkscape:window-width="1761"
     inkscape:window-height="1042"
     inkscape:window-x="2063"
     inkscape:window-y="0"
     inkscape:window-maximized="1" />
  <metadata
     id="metadata2990">
    <rdf:RDF>
      <cc:Work
         rdf:about="">
        <dc:format>image/svg+xml</dc:format>
        <dc:type
           rdf:resource="http://purl.org/dc/dcmitype/StillImage" />
        <dc:title />
      </cc:Work>
    </rdf:RDF>
  </metadata>
  <g
     inkscape:label="Layer 1"
     inkscape:groupmode="layer"
     id="layer1">
    <g
       transform="translate(-81.521197,21.95017)"
       style="font-size:10px;font-style:normal;font-weight:normal;line-height:125%;letter-spacing:0px;word-spacing:0px;fill:#ff0000;fill-opacity:1;stroke:none;font-family:Sans"
       id="flowRoot4306" />
    <g
       transform="translate(34.523432,299.55919)"
       style="font-size:10px;font-style:normal;font-weight:normal;line-height:125%;letter-spacing:0px;word-spacing:0px;fill:#ff0000;fill-opacity:1;stroke:none;font-family:Sans"
       id="flowRoot4314-4" />
    <text
       xml:space="preserve"
       style="font-size:200px;font-style:normal;font-weight:normal;line-height:125%;letter-spacing:0px;word-spacing:0px;fill:#000000;fill-opacity:1;stroke:none;font-family:Sans"
       x="664.07806"
       y="87.867859"
       id="text9407"
       sodipodi:linespacing="125%"><tspan
         sodipodi:role="line"
         id="tspan9409"
         x="664.07806"
         y="87.867859" /></text>
    <text
       xml:space="preserve"
       style="font-size:200px;font-style:normal;font-weight:normal;text-align:center;line-height:125%;letter-spacing:0px;word-spacing:0px;text-anchor:middle;fill:#ffff00;fill-opacity:1;stroke:none;font-family:Sans"
       x="2476.2219"
       y="34.520679"
       id="text9435"
       sodipodi:linespacing="125%"><tspan
         sodipodi:role="line"
         x="2476.2219"
         y="34.520679"
         id="tspan9449">Smart Nixie Tube Enclosures</tspan><tspan
         sodipodi:role="line"
         x="2476.2219"
         y="284.52069"
         id="tspan9453">for one to ten digit displays</tspan><tspan
         sodipodi:role="line"
         x="2476.2219"
         y="534.52069"
         id="tspan9439" /></text>
    <text
       xml:space="preserve"
       style="font-size:100px;font-style:normal;font-weight:normal;line-height:125%;letter-spacing:0px;word-spacing:0px;fill:#ffff00;fill-opacity:1;stroke:none;font-family:Sans"
       x="1742.0911"
       y="498.19257"
       id="text9441"
       sodipodi:linespacing="125%"><tspan
         sodipodi:role="line"
         id="tspan9443"
         x="1742.0911"
         y="498.19257">Hardware Needed:</tspan><tspan
         sodipodi:role="line"
         x="1742.0911"
         y="623.19257"
         id="tspan9445">(Qty 8) 4-40 Screw 1/2&quot; Length</tspan><tspan
         sodipodi:role="line"
         x="1742.0911"
         y="748.19257"
         id="tspan9447">(Qty 4) 4-40 Standoff 1&quot; Length</tspan><tspan
         sodipodi:role="line"
         x="1742.0911"
         y="873.19257"
         id="tspan5337">(Qty 4) 4-40 Standoff 1/8&quot; Length</tspan></text>
    <path
       id="path4481-2"
       style="fill:none;stroke:#000000;stroke-width:0.03543307;stroke-miterlimit:4;stroke-opacity:1"
       d="m 357.21304,36.271046 c 2.90101,0 5.25,2.34899 5.25,5.25 0,2.901 -2.34899,5.25 -5.25,5.25 -2.90099,0 -5.25,-2.349 -5.25,-5.25 0,-2.90101 2.34901,-5.25 5.25,-5.25 z m -11.1875,-17.28125 0,22.46875 c 0,6.22813 5.02187,11.25 11.25,11.25 l 22.46875,0 0,-5.9375 -11.21875,0 0,-10.5 11.21875,0 0,-5.15625 -12.125,0 0,-12.125 -5.15625,0 0,11.21875 -10.5,0 0,-11.21875 -5.9375,0 z m 16.4375,-24.656251 c 0,2.90101 -2.34899,5.25 -5.25,5.25 -2.901,0 -5.25,-2.34899 -5.25,-5.25 0,-2.90099 2.349,-5.25 5.25,-5.25 2.90101,0 5.25,2.34901 5.25,5.25 z m 17.28125,-11.1875 -22.46875,0 c -6.22813,0 -11.25,5.02187 -11.25,11.25 l 0,22.46875 5.9375,0 0,-11.21875 10.5,0 0,11.21875 5.15625,0 0,-12.125 12.125,0 0,-5.15625 -11.21875,0 0,-10.5 11.21875,0 0,-5.9375 z m 19.40625,58.374993 c 0,-2.90101 2.34899,-5.25 5.25,-5.25 2.901,0 5.25,2.34899 5.25,5.25 0,2.90099 -2.349,5.25 -5.25,5.25 -2.90101,0 -5.25,-2.34901 -5.25,-5.25 z m -17.28125,11.1875 22.46875,0 c 6.22813,0 11.25,-5.02187 11.25,-11.25 l 0,-22.46875 -5.9375,0 0,11.21875 -10.5,0 0,-11.21875 -5.15625,0 0,12.125 -12.125,0 0,5.15625 11.21875,0 0,10.5 -11.21875,0 0,5.9375 z m 22.53125,-53.124999 c -2.90101,0 -5.25,-2.34899 -5.25,-5.25 0,-2.901 2.34899,-5.25 5.25,-5.25 2.90099,0 5.25,2.349 5.25,5.25 0,2.90101 -2.34901,5.25 -5.25,5.25 z m 11.1875,17.28125 0,-22.46875 c 0,-6.22813 -5.02187,-11.25 -11.25,-11.25 l -22.46875,0 0,5.9375 11.21875,0 0,10.5 -11.21875,0 0,5.15625 12.125,0 0,12.125 5.15625,0 0,-11.21875 10.5,0 0,11.21875 5.9375,0 z m -53.125,-94.218747 c 0,2.90101 -2.34899,5.25 -5.25,5.25 -2.901,0 -5.25,-2.34899 -5.25,-5.25 0,-2.90099 2.349,-5.25 5.25,-5.25 2.90101,0 5.25,2.34901 5.25,5.25 z m 17.28125,-11.1875 -22.46875,0 c -6.22813,0 -11.25,5.02187 -11.25,11.25 l 0,22.46875 5.9375,0 0,-11.21875 10.5,0 0,11.21875 5.15625,0 0,-12.125 12.125,0 0,-5.15625 -11.21875,0 0,-10.5 11.21875,0 0,-5.9375 z m -22.53125,53.125002 c 2.90101,0 5.25,2.34899 5.25,5.25 0,2.901 -2.34899,5.25 -5.25,5.25 -2.90099,0 -5.25,-2.349 -5.25,-5.25 0,-2.90101 2.34901,-5.25 5.25,-5.25 z m -11.1875,-17.281252 0,22.468752 c 0,6.22813 5.02187,11.25 11.25,11.25 l 22.46875,0 0,-5.9375 -11.21875,0 0,-10.5 11.21875,0 0,-5.156252 -12.125,0 0,-12.125 -5.15625,0 0,11.21875 -10.5,0 0,-11.21875 -5.9375,0 z m 53.125,22.531248 c 0,-2.90101 2.34899,-5.25 5.25,-5.25 2.901,0 5.25,2.34899 5.25,5.25 0,2.90098 -2.349,5.25 -5.25,5.25 -2.90101,0 -5.25,-2.34902 -5.25,-5.25 z m -17.28125,11.1875 22.46875,0 c 6.22813,0 11.25,-5.02187 11.25,-11.25 l 0,-22.46875 -5.9375,0 0,11.21875 -10.5,0 0,-11.21875 -5.15625,0 0,12.125 -12.125,0 0,5.15625 11.21875,0 0,10.5 -11.21875,0 0,5.9375 z m 22.53124,-53.125004 c -2.901,0 -5.24999,-2.34899 -5.24999,-5.25 0,-2.901 2.34899,-5.25 5.24999,-5.25 2.90099,0 5.25,2.349 5.25,5.25 0,2.90101 -2.34901,5.25 -5.25,5.25 z m 11.1875,17.28125 0,-22.46875 c 0,-6.22813 -5.02187,-11.24999 -11.25,-11.24999 l -22.46874,0 0,5.93749 11.21875,0 0,10.5 -11.21875,0 0,5.15625 12.125,0 0,12.125 5.15625,0 0,-11.21875 10.49999,0 0,11.21875 5.9375,0 z M 333.74426,181.33455 c -40.18615,0 -80.37231,0 -120.55847,0 0,-89.95867 0,-179.9173391 0,-269.876008 40.18616,0 80.37232,0 120.55847,0 0,89.9586689 0,179.917338 0,269.876008 z M 90.502335,-88.541458 c 40.186145,0 80.372305,0 120.558465,0 0,89.9586689 0,179.917338 0,269.876008 -40.18616,0 -80.37232,0 -120.558465,0 0,-89.95867 0,-179.9173391 0,-269.876008 z M 425.74432,60.776077 c 0,40.186153 0,80.372313 0,120.558473 -29.95835,0 -59.9167,0 -89.87506,0 0,-40.18616 0,-80.37232 0,-120.558473 29.95836,0 59.91671,0 89.87506,0 z M -82.36766,136.37307 c 0,18.60775 -15.08468,33.69231 -33.69258,33.69231 -18.60789,0 -33.69257,-15.08456 -33.69257,-33.69231 0,-18.60775 15.08468,-33.69232 33.69257,-33.69232 18.6079,0 33.69258,15.08457 33.69258,33.69232 z m 27.808968,56.25663 c 0,2.901 -2.35173,5.25273 -5.25273,5.25273 -2.90101,0 -5.25274,-2.35173 -5.25274,-5.25273 0,-2.90101 2.35173,-5.25274 5.25274,-5.25274 2.901,0 5.25273,2.35173 5.25273,5.25274 z m -112.497628,0 c 0,2.901 -2.35172,5.25273 -5.25273,5.25273 -2.90101,0 -5.25274,-2.35173 -5.25274,-5.25273 0,-2.90101 2.35173,-5.25274 5.25274,-5.25274 2.90101,0 5.25273,2.35173 5.25273,5.25274 z M -54.558692,-99.83661 c 0,2.90101 -2.35173,5.252733 -5.25273,5.252733 -2.90101,0 -5.25274,-2.351723 -5.25274,-5.252733 0,-2.90101 2.35173,-5.25273 5.25274,-5.25273 2.901,0 5.25273,2.35172 5.25273,5.25273 z m -112.497628,0 c 0,2.90101 -2.35172,5.252733 -5.25273,5.252733 -2.90101,0 -5.25274,-2.351723 -5.25274,-5.252733 0,-2.90101 2.35173,-5.25273 5.25274,-5.25273 2.90101,0 5.25273,2.35172 5.25273,5.25273 z m -5.19934,-11.18568 112.390838,0 c 6.22813,0 11.24211,5.01398 11.24211,11.242109 l 0,292.353461 c 0,6.22813 -5.01398,11.2421 -11.24211,11.2421 l -112.390838,0 c -6.22812,0 -11.2421,-5.01397 -11.2421,-11.2421 l 0,-292.353461 c 0,-6.228129 5.01398,-11.242109 11.2421,-11.242109 z M 82.441362,192.6297 c 0,2.901 -2.351731,5.25273 -5.252738,5.25273 -2.901005,0 -5.252737,-2.35173 -5.252737,-5.25273 0,-2.901 2.351732,-5.25273 5.252737,-5.25273 2.901007,0 5.252738,2.35173 5.252738,5.25273 z m -112.497625,0 c 0,2.901 -2.351729,5.25273 -5.252737,5.25273 -2.901006,0 -5.252738,-2.35173 -5.252738,-5.25273 0,-2.901 2.351732,-5.25273 5.252738,-5.25273 2.901008,0 5.252737,2.35173 5.252737,5.25273 z M 82.441362,-99.836611 c 0,2.90101 -2.351731,5.252733 -5.252738,5.252733 -2.901005,0 -5.252737,-2.351723 -5.252737,-5.252733 0,-2.901009 2.351732,-5.252729 5.252737,-5.252729 2.901007,0 5.252738,2.35172 5.252738,5.252729 z m -112.497625,0 c 0,2.90101 -2.351729,5.252733 -5.252737,5.252733 -2.901006,0 -5.252738,-2.351723 -5.252738,-5.252733 0,-2.901009 2.351732,-5.252729 5.252738,-5.252729 2.901008,0 5.252737,2.35172 5.252737,5.252729 z m -5.199343,-11.185679 112.390836,0 c 6.228126,0 11.242105,5.01398 11.242105,11.242108 l 0,292.353462 c 0,6.22813 -5.013979,11.2421 -11.242105,11.2421 l -112.390836,0 c -6.228126,0 -11.242106,-5.01397 -11.242106,-11.2421 l 0,-292.353462 c 0,-6.228128 5.01398,-11.242108 11.242106,-11.242108 z" />
    <path
       id="path4481-2-2"
       style="fill:none;stroke:#000000;stroke-width:0.03543307;stroke-miterlimit:4;stroke-opacity:1"
       d="m 279.55089,268.45269 c 40.18614,0 80.3723,0 120.55846,0 0,89.95867 0,179.91735 0,269.87602 -40.18616,0 -80.37232,0 -120.55846,0 0,-89.95867 0,-179.91734 0,-269.87602 z m 243.24192,269.87602 c -40.18615,0 -80.37231,0 -120.55847,0 0,-89.95867 0,-179.91734 0,-269.87602 40.18616,0 80.37232,0 120.55847,0 0,89.95867 0,179.91735 0,269.87602 z m 81.84377,-236.15728 0,-22.46875 c 0,-6.22813 -5.02187,-11.24999 -11.25,-11.24999 l -22.46874,0 0,5.93749 11.21875,0 0,10.5 -11.21875,0 0,5.15625 12.125,0 0,12.125 5.15625,0 0,-11.21875 10.49999,0 0,11.21875 5.9375,0 z m -11.1875,-17.28125 c -2.901,0 -5.24999,-2.34899 -5.24999,-5.25 0,-2.901 2.34899,-5.25 5.24999,-5.25 2.90099,0 5.25,2.349 5.25,5.25 0,2.90101 -2.34901,5.25 -5.25,5.25 z m -22.53124,53.125 22.46875,0 c 6.22813,0 11.25,-5.02187 11.25,-11.25 l 0,-22.46875 -5.9375,0 0,11.21875 -10.5,0 0,-11.21875 -5.15625,0 0,12.125 -12.125,0 0,5.15625 11.21875,0 0,10.5 -11.21875,0 0,5.9375 z m 17.28125,-11.1875 c 0,-2.90101 2.34899,-5.25 5.25,-5.25 2.901,0 5.25,2.34899 5.25,5.25 0,2.90098 -2.349,5.25 -5.25,5.25 -2.90101,0 -5.25,-2.34902 -5.25,-5.25 z m -53.125,-22.53124 0,22.46875 c 0,6.22813 5.02187,11.25 11.25,11.25 l 22.46875,0 0,-5.9375 -11.21875,0 0,-10.5 11.21875,0 0,-5.15625 -12.125,0 0,-12.125 -5.15625,0 0,11.21875 -10.5,0 0,-11.21875 -5.9375,0 z m 11.1875,17.28125 c 2.90101,0 5.25,2.34899 5.25,5.25 0,2.901 -2.34899,5.25 -5.25,5.25 -2.90099,0 -5.25,-2.349 -5.25,-5.25 0,-2.90101 2.34901,-5.25 5.25,-5.25 z m 22.53125,-53.125 -22.46875,0 c -6.22813,0 -11.25,5.02187 -11.25,11.25 l 0,22.46875 5.9375,0 0,-11.21875 10.5,0 0,11.21875 5.15625,0 0,-12.125 12.125,0 0,-5.15625 -11.21875,0 0,-10.5 11.21875,0 0,-5.9375 z m -17.28125,11.1875 c 0,2.90101 -2.34899,5.25 -5.25,5.25 -2.901,0 -5.25,-2.34899 -5.25,-5.25 0,-2.90099 2.349,-5.25 5.25,-5.25 2.90101,0 5.25,2.34901 5.25,5.25 z m 53.125,94.21875 0,-22.46876 c 0,-6.22813 -5.02187,-11.25 -11.25,-11.25 l -22.46875,0 0,5.9375 11.21875,0 0,10.5 -11.21875,0 0,5.15625 12.125,0 0,12.12501 5.15625,0 0,-11.21876 10.5,0 0,11.21876 5.9375,0 z m -11.1875,-17.28126 c -2.90101,0 -5.25,-2.34899 -5.25,-5.25 0,-2.901 2.34899,-5.25 5.25,-5.25 2.90099,0 5.25,2.349 5.25,5.25 0,2.90101 -2.34901,5.25 -5.25,5.25 z m -22.53125,53.12501 22.46875,0 c 6.22813,0 11.25,-5.02187 11.25,-11.25 l 0,-22.46875 -5.9375,0 0,11.21875 -10.5,0 0,-11.21875 -5.15625,0 0,12.125 -12.125,0 0,5.15625 11.21875,0 0,10.5 -11.21875,0 0,5.9375 z m 17.28125,-11.1875 c 0,-2.90101 2.34899,-5.25 5.25,-5.25 2.901,0 5.25,2.34899 5.25,5.25 0,2.90099 -2.349,5.25 -5.25,5.25 -2.90101,0 -5.25,-2.34901 -5.25,-5.25 z m -19.40625,-58.375 -22.46875,0 c -6.22813,0 -11.25,5.02187 -11.25,11.25 l 0,22.46875 5.9375,0 0,-11.21875 10.5,0 0,11.21875 5.15625,0 0,-12.125 12.125,0 0,-5.15625 -11.21875,0 0,-10.5 11.21875,0 0,-5.9375 z m -17.28125,11.1875 c 0,2.90101 -2.34899,5.25 -5.25,5.25 -2.901,0 -5.25,-2.34899 -5.25,-5.25 0,-2.90099 2.349,-5.25 5.25,-5.25 2.90101,0 5.25,2.34901 5.25,5.25 z m -16.4375,24.65625 0,22.46875 c 0,6.22813 5.02187,11.25 11.25,11.25 l 22.46875,0 0,-5.9375 -11.21875,0 0,-10.5 11.21875,0 0,-5.15625 -12.125,0 0,-12.125 -5.15625,0 0,11.21875 -10.5,0 0,-11.21875 -5.9375,0 z m 11.1875,17.28125 c 2.90101,0 5.25,2.34899 5.25,5.25 0,2.901 -2.34899,5.25 -5.25,5.25 -2.90099,0 -5.25,-2.349 -5.25,-5.25 0,-2.90101 2.34901,-5.25 5.25,-5.25 z m 163.03008,24.50504 c 0,40.18616 0,80.37232 0,120.55848 -61.45759,0 -122.91515,0 -184.37276,0 0,-40.18616 0,-80.37232 0,-120.55848 61.45761,0 122.91517,0 184.37276,0 z M 64.466906,257.12797 c 0,2.90101 -2.35172,5.25274 -5.25274,5.25274 -2.901,0 -5.25274,-2.35173 -5.25274,-5.25274 0,-2.901 2.35174,-5.25273 5.25274,-5.25273 2.90102,0 5.25274,2.35173 5.25274,5.25273 z m 0,292.52545 c 0,2.90101 -2.35172,5.25274 -5.25274,5.25274 -2.901,0 -5.25274,-2.35173 -5.25274,-5.25274 0,-2.901 2.35174,-5.25273 5.25274,-5.25273 2.90102,0 5.25274,2.35173 5.25274,5.25273 z M 271.49103,257.12797 c 0,2.90101 -2.35172,5.25274 -5.25274,5.25274 -2.901,0 -5.25274,-2.35173 -5.25274,-5.25274 0,-2.901 2.35174,-5.25273 5.25274,-5.25273 2.90102,0 5.25274,2.35173 5.25274,5.25273 z m 0,292.52545 c 0,2.90101 -2.35172,5.25274 -5.25274,5.25274 -2.901,0 -5.25274,-2.35173 -5.25274,-5.25274 0,-2.901 2.35174,-5.25273 5.25274,-5.25273 2.90102,0 5.25274,2.35173 5.25274,5.25273 z M 59.214066,245.94038 l 207.024324,0 c 6.19787,0 11.1875,4.98963 11.1875,11.1875 l 0,292.52564 c 0,6.19787 -4.98963,11.1875 -11.1875,11.1875 l -207.024324,0 c -6.19787,0 -11.1875,-4.98963 -11.1875,-11.1875 l 0,-292.52564 c 0,-6.19787 4.98963,-11.1875 11.1875,-11.1875 z M 12.120454,493.39871 c 0,18.60775 -15.0846813,33.69231 -33.692577,33.69231 -18.607896,0 -33.692577,-15.08456 -33.692577,-33.69231 0,-18.60775 15.084681,-33.69232 33.692577,-33.69232 18.6078957,0 33.692577,15.08457 33.692577,33.69232 z m -94.478059,0 c 0,18.60775 -15.08468,33.69231 -33.692575,33.69231 -18.6079,0 -33.69258,-15.08456 -33.69258,-33.69231 0,-18.60775 15.08468,-33.69232 33.69258,-33.69232 18.607895,0 33.692575,15.08457 33.692575,33.69232 z M -167.05742,257.12797 c 0,2.90101 -2.35172,5.25274 -5.25274,5.25274 -2.901,0 -5.25274,-2.35173 -5.25274,-5.25274 0,-2.901 2.35174,-5.25273 5.25274,-5.25273 2.90102,0 5.25274,2.35173 5.25274,5.25273 z m 0,292.52545 c 0,2.90101 -2.35172,5.25274 -5.25274,5.25274 -2.901,0 -5.25274,-2.35173 -5.25274,-5.25274 0,-2.901 2.35174,-5.25273 5.25274,-5.25273 2.90102,0 5.25274,2.35173 5.25274,5.25273 z M 39.966706,257.12797 c 0,2.90101 -2.35172,5.25274 -5.25274,5.25274 -2.901,0 -5.25274,-2.35173 -5.25274,-5.25274 0,-2.901 2.35174,-5.25273 5.25274,-5.25273 2.90102,0 5.25274,2.35173 5.25274,5.25273 z m 0,292.52545 c 0,2.90101 -2.35172,5.25274 -5.25274,5.25274 -2.901,0 -5.25274,-2.35173 -5.25274,-5.25274 0,-2.901 2.35174,-5.25273 5.25274,-5.25273 2.90102,0 5.25274,2.35173 5.25274,5.25273 z m -212.276966,-303.71304 207.024326,0 c 6.197875,0 11.1875,4.98963 11.1875,11.1875 l 0,292.52564 c 0,6.19787 -4.989625,11.1875 -11.1875,11.1875 l -207.024326,0 c -6.19787,0 -11.1875,-4.98963 -11.1875,-11.1875 l 0,-292.52564 c 0,-6.19787 4.98963,-11.1875 11.1875,-11.1875 z" />
    <path
       id="path4563-7-8"
       style="fill:none;stroke:#000000;stroke-width:0.03543306;stroke-miterlimit:4;stroke-opacity:1;stroke-dasharray:none"
       d="m 992.73538,772.77669 c 0,40.18616 0,80.37232 0,120.55848 -92.95733,0 -185.91465,0 -278.87202,0 0,-40.18616 0,-80.37232 0,-120.55848 92.95737,0 185.91469,0 278.87202,0 z M 468.49492,623.45915 c 40.18614,0 80.3723,0 120.55846,0 0,89.95867 0,179.91734 0,269.87601 -40.18616,0 -80.37232,0 -120.55846,0 0,-89.95867 0,-179.91734 0,-269.87601 z m 243.24192,269.87602 c -40.18615,0 -80.37231,0 -120.55847,0 0,-89.95867 0,-179.91734 0,-269.87602 40.18616,0 80.37232,0 120.55847,0 0,89.95867 0,179.91734 0,269.87601 z m 81.84377,-236.15728 0,-22.46875 c 0,-6.22813 -5.02187,-11.24999 -11.25,-11.24999 l -22.46874,0 0,5.93749 11.21875,0 0,10.5 -11.21875,0 0,5.15625 12.125,0 0,12.125 5.15625,0 0,-11.21875 10.49999,0 0,11.21875 5.9375,0 z m -11.1875,-17.28125 c -2.901,0 -5.24999,-2.34899 -5.24999,-5.25 0,-2.901 2.34899,-5.25 5.24999,-5.25 2.90099,0 5.25,2.349 5.25,5.25 0,2.90101 -2.34901,5.25 -5.25,5.25 z m -22.53124,53.125 22.46875,0 c 6.22813,0 11.25,-5.02187 11.25,-11.25 l 0,-22.46875 -5.9375,0 0,11.21875 -10.5,0 0,-11.21875 -5.15625,0 0,12.125 -12.125,0 0,5.15625 11.21875,0 0,10.5 -11.21875,0 0,5.9375 z m 17.28125,-11.1875 c 0,-2.90101 2.34899,-5.25 5.25,-5.25 2.901,0 5.25,2.34899 5.25,5.25 0,2.90098 -2.349,5.25 -5.25,5.25 -2.90101,0 -5.25,-2.34902 -5.25,-5.25 z m -53.125,-22.53124 0,22.46875 c 0,6.22812 5.02187,11.25 11.25,11.25 l 22.46875,0 0,-5.9375 -11.21875,0 0,-10.5 11.21875,0 0,-5.15625 -12.125,0 0,-12.125 -5.15625,0 0,11.21875 -10.5,0 0,-11.21875 -5.9375,0 z m 11.1875,17.28125 c 2.90101,0 5.25,2.34898 5.25,5.25 0,2.90099 -2.34899,5.25 -5.25,5.25 -2.90099,0 -5.25,-2.34901 -5.25,-5.25 0,-2.90102 2.34901,-5.25 5.25,-5.25 z m 22.53125,-53.125 -22.46875,0 c -6.22813,0 -11.25,5.02187 -11.25,11.25 l 0,22.46875 5.9375,0 0,-11.21875 10.5,0 0,11.21875 5.15625,0 0,-12.125 12.125,0 0,-5.15625 -11.21875,0 0,-10.5 11.21875,0 0,-5.9375 z m -17.28125,11.1875 c 0,2.90101 -2.34899,5.25 -5.25,5.25 -2.901,0 -5.25,-2.34899 -5.25,-5.25 0,-2.90099 2.349,-5.25 5.25,-5.25 2.90101,0 5.25,2.34901 5.25,5.25 z m 53.125,94.21875 0,-22.46876 c 0,-6.22813 -5.02187,-11.25 -11.25,-11.25 l -22.46875,0 0,5.9375 11.21875,0 0,10.5 -11.21875,0 0,5.15625 12.125,0 0,12.12501 5.15625,0 0,-11.21876 10.5,0 0,11.21876 5.9375,0 z m -11.1875,-17.28126 c -2.90101,0 -5.25,-2.34899 -5.25,-5.25 0,-2.901 2.34899,-5.25 5.25,-5.25 2.90099,0 5.25,2.349 5.25,5.25 0,2.90101 -2.34901,5.25 -5.25,5.25 z m -22.53125,53.12501 22.46875,0 c 6.22813,0 11.25,-5.02188 11.25,-11.25 l 0,-22.46875 -5.9375,0 0,11.21875 -10.5,0 0,-11.21875 -5.15625,0 0,12.125 -12.125,0 0,5.15625 11.21875,0 0,10.5 -11.21875,0 0,5.9375 z m 17.28125,-11.1875 c 0,-2.90102 2.34899,-5.25 5.25,-5.25 2.901,0 5.25,2.34898 5.25,5.25 0,2.90099 -2.349,5.25 -5.25,5.25 -2.90101,0 -5.25,-2.34901 -5.25,-5.25 z m -19.40625,-58.375 -22.46875,0 c -6.22813,0 -11.25,5.02187 -11.25,11.25 l 0,22.46875 5.9375,0 0,-11.21875 10.5,0 0,11.21875 5.15625,0 0,-12.125 12.125,0 0,-5.15625 -11.21875,0 0,-10.5 11.21875,0 0,-5.9375 z m -17.28125,11.1875 c 0,2.90101 -2.34899,5.25 -5.25,5.25 -2.901,0 -5.25,-2.34899 -5.25,-5.25 0,-2.90099 2.349,-5.25 5.25,-5.25 2.90101,0 5.25,2.34901 5.25,5.25 z m -16.4375,24.65625 0,22.46875 c 0,6.22812 5.02187,11.25 11.25,11.25 l 22.46875,0 0,-5.9375 -11.21875,0 0,-10.5 11.21875,0 0,-5.15625 -12.125,0 0,-12.125 -5.15625,0 0,11.21875 -10.5,0 0,-11.21875 -5.9375,0 z m 11.1875,17.28125 c 2.90101,0 5.25,2.34898 5.25,5.25 0,2.90099 -2.34899,5.25 -5.25,5.25 -2.90099,0 -5.25,-2.34901 -5.25,-5.25 0,-2.90102 2.34901,-5.25 5.25,-5.25 z m -581.45704,-147.30563 301.37134,0 c 6.2325,0 11.25,5.0175 11.25,11.25 l 0,292.36227 c 0,6.2325 -5.0175,11.25 -11.25,11.25 l -301.37134,0 c -6.2325,0 -11.25,-5.0175 -11.25,-11.25 l 0,-292.36227 c 0,-6.2325 5.0175,-11.25 11.25,-11.25 z m 306.68648,11.18759 c 0,2.90101 -2.35172,5.25274 -5.25274,5.25274 -2.901,0 -5.25274,-2.35173 -5.25274,-5.25274 0,-2.901 2.35174,-5.25273 5.25274,-5.25273 2.90102,0 5.25274,2.35173 5.25274,5.25273 z m -301.49614,0 c 0,2.90101 -2.35172,5.25274 -5.25274,5.25274 -2.901,0 -5.25274,-2.35173 -5.25274,-5.25274 0,-2.901 2.35174,-5.25273 5.25274,-5.25273 2.90102,0 5.25274,2.35173 5.25274,5.25273 z m 0,292.48708 c 0,2.901 -2.35172,5.2528 -5.25274,5.2528 -2.901,0 -5.25274,-2.3518 -5.25274,-5.2528 0,-2.901 2.35174,-5.2527 5.25274,-5.2527 2.90102,0 5.25274,2.3517 5.25274,5.2527 z m 301.49614,0 c 0,2.901 -2.35172,5.2528 -5.25274,5.2528 -2.901,0 -5.25274,-2.3518 -5.25274,-5.2528 0,-2.901 2.35174,-5.2527 5.25274,-5.2527 2.90102,0 5.25274,2.3517 5.25274,5.2527 z M -172.24776,600.966 l 301.37134,0 c 6.2325,0 11.25,5.0175 11.25,11.25 l 0,292.36231 c 0,6.2325 -5.0175,11.25 -11.25,11.25 l -301.37134,0 c -6.2325,0 -11.25,-5.0175 -11.25,-11.25 l 0,-292.36231 c 0,-6.2325 5.0175,-11.25 11.25,-11.25 z m 306.68648,11.18759 c 0,2.90101 -2.35172,5.25274 -5.25274,5.25274 -2.901,0 -5.25274,-2.35173 -5.25274,-5.25274 0,-2.901 2.35174,-5.25273 5.25274,-5.25273 2.90102,0 5.25274,2.35173 5.25274,5.25273 z m -301.49614,0 c 0,2.90101 -2.35172,5.25274 -5.25274,5.25274 -2.901,0 -5.25274,-2.35173 -5.25274,-5.25274 0,-2.901 2.35174,-5.25273 5.25274,-5.25273 2.90102,0 5.25274,2.35173 5.25274,5.25273 z m 0,292.48712 c 0,2.90101 -2.35172,5.25274 -5.25274,5.25274 -2.901,0 -5.25274,-2.35173 -5.25274,-5.25274 0,-2.901 2.35174,-5.25273 5.25274,-5.25273 2.90102,0 5.25274,2.35173 5.25274,5.25273 z m 301.49614,0 c 0,2.90101 -2.35172,5.25274 -5.25274,5.25274 -2.901,0 -5.25274,-2.35173 -5.25274,-5.25274 0,-2.901 2.35174,-5.25273 5.25274,-5.25273 2.90102,0 5.25274,2.35173 5.25274,5.25273 z m -216.79873,-56.2487 c 0,18.60775 -15.084678,33.69231 -33.69258,33.69231 -18.6079,0 -33.69258,-15.08456 -33.69258,-33.69231 0,-18.60775 15.08468,-33.69232 33.69258,-33.69232 18.607902,0 33.69258,15.08457 33.69258,33.69232 z m 94.490499,0 c 0,18.60775 -15.0846797,33.69231 -33.692574,33.69231 -18.6079,0 -33.69258,-15.08456 -33.69258,-33.69231 0,-18.60775 15.08468,-33.69232 33.69258,-33.69232 18.6078943,0 33.692574,15.08457 33.692574,33.69232 z m 94.490501,0 c 0,18.60775 -15.084679,33.69231 -33.692574,33.69231 -18.6079,0 -33.69258,-15.08456 -33.69258,-33.69231 0,-18.60775 15.08468,-33.69232 33.69258,-33.69232 18.607895,0 33.692574,15.08457 33.692574,33.69232 z" />
    <path
       id="path4563-7-9"
       style="fill:none;stroke:#000000;stroke-width:0.03543307;stroke-miterlimit:4;stroke-opacity:1;stroke-dasharray:none"
       d="m 106.56256,1203.3882 c 0,18.6078 -15.084684,33.6923 -33.692584,33.6923 -18.6079,0 -33.69258,-15.0845 -33.69258,-33.6923 0,-18.6077 15.08468,-33.6923 33.69258,-33.6923 18.6079,0 33.692584,15.0846 33.692584,33.6923 z m 94.53155,-1e-4 c 0,18.6078 -15.08469,33.6924 -33.69259,33.6924 -18.6079,0 -33.69258,-15.0846 -33.69258,-33.6924 0,-18.6077 15.08468,-33.6923 33.69258,-33.6923 18.6079,0 33.69259,15.0846 33.69259,33.6923 z m -188.906577,1e-4 c 0,18.6078 -15.0846778,33.6923 -33.69258,33.6923 -18.6079,0 -33.69258,-15.0845 -33.69258,-33.6923 0,-18.6077 15.08468,-33.6923 33.69258,-33.6923 18.6079022,0 33.69258,15.0846 33.69258,33.6923 z m -94.531547,0 c 0,18.6077 -15.084678,33.6923 -33.692576,33.6923 -18.6079,0 -33.69258,-15.0846 -33.69258,-33.6923 0,-18.6078 15.08468,-33.6924 33.69258,-33.6924 18.607898,0 33.692576,15.0846 33.692576,33.6924 z M 228.92783,967.14091 c 0,2.901 -2.35172,5.2527 -5.25274,5.2527 -2.901,0 -5.25274,-2.3517 -5.25274,-5.2527 0,-2.901 2.35174,-5.2528 5.25274,-5.2528 2.90102,0 5.25274,2.3518 5.25274,5.2528 z m 0,292.51439 c 0,2.901 -2.35172,5.2527 -5.25274,5.2527 -2.901,0 -5.25274,-2.3517 -5.25274,-5.2527 0,-2.901 2.35174,-5.2528 5.25274,-5.2528 2.90102,0 5.25274,2.3518 5.25274,5.2528 z m -395.98525,0 c 0,2.901 -2.35172,5.2527 -5.25274,5.2527 -2.901,0 -5.25274,-2.3517 -5.25274,-5.2527 0,-2.901 2.35174,-5.2528 5.25274,-5.2528 2.90102,0 5.25274,2.3518 5.25274,5.2528 z m 0,-292.51439 c 0,2.901 -2.35172,5.2527 -5.25274,5.2527 -2.901,0 -5.25274,-2.3517 -5.25274,-5.2527 0,-2.901 2.35174,-5.2528 5.25274,-5.2528 2.90102,0 5.25274,2.3518 5.25274,5.2528 z m -5.25284,-11.1876 395.98545,0 c 6.19787,0 11.1875,4.98962 11.1875,11.1875 l 0,292.51459 c 0,6.1978 -4.98963,11.1875 -11.1875,11.1875 l -395.98545,0 c -6.19787,0 -11.1875,-4.9897 -11.1875,-11.1875 l 0,-292.51459 c 0,-6.19788 4.98963,-11.1875 11.1875,-11.1875 z m 821.72354,11.18759 c 0,2.901 -2.35172,5.2527 -5.25274,5.2527 -2.901,0 -5.25274,-2.3517 -5.25274,-5.2527 0,-2.901 2.35174,-5.2528 5.25274,-5.2528 2.90102,0 5.25274,2.3518 5.25274,5.2528 z m 0,292.5144 c 0,2.901 -2.35172,5.2527 -5.25274,5.2527 -2.901,0 -5.25274,-2.3517 -5.25274,-5.2527 0,-2.901 2.35174,-5.2528 5.25274,-5.2528 2.90102,0 5.25274,2.3518 5.25274,5.2528 z m -395.98525,0 c 0,2.901 -2.35172,5.2527 -5.25274,5.2527 -2.901,0 -5.25274,-2.3517 -5.25274,-5.2527 0,-2.901 2.35174,-5.2528 5.25274,-5.2528 2.90102,0 5.25274,2.3518 5.25274,5.2528 z m 0,-292.5144 c 0,2.901 -2.35172,5.2527 -5.25274,5.2527 -2.901,0 -5.25274,-2.3517 -5.25274,-5.2527 0,-2.901 2.35174,-5.2528 5.25274,-5.2528 2.90102,0 5.25274,2.3518 5.25274,5.2528 z m -5.25284,-11.1876 395.98545,0 c 6.19787,0 11.1875,4.9896 11.1875,11.1875 l 0,292.5146 c 0,6.1978 -4.98963,11.1875 -11.1875,11.1875 l -395.98545,0 c -6.19787,0 -11.1875,-4.9897 -11.1875,-11.1875 l 0,-292.5146 c 0,-6.1979 4.98963,-11.1875 11.1875,-11.1875 z m 676.00867,147.3193 c 2.901,0 5.25,2.349 5.25,5.25 0,2.901 -2.349,5.25 -5.25,5.25 -2.901,0 -5.25,-2.349 -5.25,-5.25 0,-2.901 2.349,-5.25 5.25,-5.25 z m -11.18752,-17.2813 0,22.4688 c 0,6.2281 5.02182,11.25 11.25002,11.25 l 22.4687,0 0,-5.9375 -11.2187,0 0,-10.5 11.2187,0 0,-5.1563 -12.125,0 0,-12.125 -5.1562,0 0,11.2188 -10.5,0 0,-11.2188 -5.93752,0 z m 16.43752,-24.6562 c 0,2.901 -2.349,5.25 -5.25,5.25 -2.901,0 -5.25,-2.349 -5.25,-5.25 0,-2.901 2.349,-5.25 5.25,-5.25 2.901,0 5.25,2.349 5.25,5.25 z m 17.2812,-11.1875 -22.4687,0 c -6.2282,0 -11.25002,5.0218 -11.25002,11.25 l 0,22.4687 5.93752,0 0,-11.2187 10.5,0 0,11.2187 5.1562,0 0,-12.125 12.125,0 0,-5.1562 -11.2187,0 0,-10.5 11.2187,0 0,-5.9375 z m 19.4063,58.375 c 0,-2.901 2.349,-5.25 5.25,-5.25 2.901,0 5.25,2.349 5.25,5.25 0,2.901 -2.349,5.25 -5.25,5.25 -2.901,0 -5.25,-2.349 -5.25,-5.25 z m -17.2813,11.1875 22.4688,0 c 6.2281,0 11.25,-5.0219 11.25,-11.25 l 0,-22.4688 -5.9375,0 0,11.2188 -10.5,0 0,-11.2188 -5.1563,0 0,12.125 -12.125,0 0,5.1563 11.2188,0 0,10.5 -11.2188,0 0,5.9375 z m 22.5313,-53.125 c -2.901,0 -5.25,-2.349 -5.25,-5.25 0,-2.901 2.349,-5.25 5.25,-5.25 2.901,0 5.25,2.349 5.25,5.25 0,2.901 -2.349,5.25 -5.25,5.25 z m 11.1875,17.2812 0,-22.4687 c 0,-6.2282 -5.0219,-11.25 -11.25,-11.25 l -22.4688,0 0,5.9375 11.2188,0 0,10.5 -11.2188,0 0,5.1562 12.125,0 0,12.125 5.1563,0 0,-11.2187 10.5,0 0,11.2187 5.9375,0 z m -53.125,-94.2187 c 0,2.901 -2.349,5.25 -5.25,5.25 -2.901,0 -5.25,-2.349 -5.25,-5.25 0,-2.901 2.349,-5.25 5.25,-5.25 2.901,0 5.25,2.349 5.25,5.25 z m 17.2812,-11.1875 -22.4687,0 c -6.2282,0 -11.25002,5.0218 -11.25002,11.25 l 0,22.4687 5.93752,0 0,-11.2187 10.5,0 0,11.2187 5.1562,0 0,-12.125 12.125,0 0,-5.1562 -11.2187,0 0,-10.5 11.2187,0 0,-5.9375 z m -22.5312,53.125 c 2.901,0 5.25,2.349 5.25,5.25 0,2.901 -2.349,5.25 -5.25,5.25 -2.901,0 -5.25,-2.349 -5.25,-5.25 0,-2.901 2.349,-5.25 5.25,-5.25 z m -11.18752,-17.2813 0,22.4688 c 0,6.2281 5.02182,11.25 11.25002,11.25 l 22.4687,0 0,-5.9375 -11.2187,0 0,-10.5 11.2187,0 0,-5.1563 -12.125,0 0,-12.125 -5.1562,0 0,11.2188 -10.5,0 0,-11.2188 -5.93752,0 z m 53.12502,22.5313 c 0,-2.901 2.349,-5.25 5.25,-5.25 2.901,0 5.25,2.349 5.25,5.25 0,2.9009 -2.349,5.25 -5.25,5.25 -2.901,0 -5.25,-2.3491 -5.25,-5.25 z m -17.2813,11.1875 22.4688,0 c 6.2281,0 11.25,-5.0219 11.25,-11.25 l 0,-22.4688 -5.9375,0 0,11.2188 -10.5,0 0,-11.2188 -5.1563,0 0,12.125 -12.125,0 0,5.1563 11.2188,0 0,10.5 -11.2188,0 0,5.9375 z m 22.5313,-53.125 c -2.901,0 -5.25,-2.349 -5.25,-5.25 0,-2.901 2.349,-5.25 5.25,-5.25 2.901,0 5.25,2.349 5.25,5.25 0,2.901 -2.349,5.25 -5.25,5.25 z m 11.1875,17.2812 0,-22.4687 c 0,-6.2282 -5.0219,-11.25 -11.25,-11.25 l -22.4688,0 0,5.9375 11.2188,0 0,10.5 -11.2188,0 0,5.1562 12.125,0 0,12.125 5.1563,0 0,-11.2187 10.5,0 0,11.2187 5.9375,0 z m -81.8438,236.1573 c -40.18615,0 -80.37231,0 -120.55847,0 0,-89.9587 0,-179.9173 0,-269.876 40.18616,0 80.37232,0 120.55847,0 0,89.9586 0,179.9173 0,269.876 z M 657.47314,978.4601 c 40.18614,0 80.3723,0 120.55846,0 0,89.9586 0,179.9173 0,269.876 -40.18616,0 -80.37232,0 -120.55846,0 0,-89.9587 0,-179.9173 0,-269.876 z m 618.74026,149.3176 c 0,40.1861 0,80.3723 0,120.5584 -124.4573,0 -248.9142,0 -373.37164,0 0,-40.1861 0,-80.3723 0,-120.5584 124.45744,0 248.91434,0 373.37164,0 z" />
    <path
       id="path4563-7-2"
       style="fill:none;stroke:#000000;stroke-width:0.03543306;stroke-miterlimit:4;stroke-opacity:1;stroke-dasharray:none"
       d="m 106.64737,1558.4033 c 0,18.6077 -15.08468,33.6923 -33.69258,33.6923 -18.6079,0 -33.692583,-15.0846 -33.692583,-33.6923 0,-18.6078 15.084683,-33.6924 33.692583,-33.6924 18.6079,0 33.69258,15.0846 33.69258,33.6924 z m 188.99026,0 c 0,18.6077 -15.08467,33.6923 -33.69257,33.6923 -18.6079,0 -33.69258,-15.0846 -33.69258,-33.6923 0,-18.6078 15.08468,-33.6924 33.69258,-33.6924 18.6079,0 33.69257,15.0846 33.69257,33.6924 z m -94.49026,0 c 0,18.6077 -15.08468,33.6923 -33.69258,33.6923 -18.6079,0 -33.69258,-15.0846 -33.69258,-33.6923 0,-18.6078 15.08468,-33.6924 33.69258,-33.6924 18.6079,0 33.69258,15.0846 33.69258,33.6924 z m -283.490265,0 c 0,18.6077 -15.084678,33.6923 -33.692575,33.6923 -18.6079,0 -33.69258,-15.0846 -33.69258,-33.6923 0,-18.6078 15.08468,-33.6924 33.69258,-33.6924 18.607897,0 33.692575,15.0846 33.692575,33.6924 z m 94.5,0 c 0,18.6077 -15.0846779,33.6923 -33.692576,33.6923 -18.6079,0 -33.69258,-15.0846 -33.69258,-33.6923 0,-18.6078 15.08468,-33.6924 33.69258,-33.6924 18.6078981,0 33.692576,15.0846 33.692576,33.6924 z m 311.315365,56.2605 c 0,2.901 -2.35172,5.2527 -5.25274,5.2527 -2.90099,0 -5.25273,-2.3517 -5.25273,-5.2527 0,-2.901 2.35174,-5.2527 5.25273,-5.2527 2.90102,0 5.25274,2.3517 5.25274,5.2527 z m -490.52989,0 c 0,2.901 -2.35172,5.2527 -5.25274,5.2527 -2.901,0 -5.25274,-2.3517 -5.25274,-5.2527 0,-2.901 2.35174,-5.2528 5.25274,-5.2528 2.90102,0 5.25274,2.3518 5.25274,5.2528 z m 490.52989,-292.5083 c 0,2.901 -2.35172,5.2528 -5.25274,5.2528 -2.901,0 -5.25274,-2.3518 -5.25274,-5.2528 0,-2.901 2.35174,-5.2527 5.25274,-5.2527 2.90102,0 5.25274,2.3517 5.25274,5.2527 z m -490.52989,0 c 0,2.901 -2.35172,5.2527 -5.25274,5.2527 -2.901,0 -5.25274,-2.3517 -5.25274,-5.2527 0,-2.901 2.35174,-5.2528 5.25274,-5.2528 2.90102,0 5.25274,2.3518 5.25274,5.2528 z m -5.23324,-11.1876 490.49089,0 c 6.20874,0 11.2071,4.9984 11.2071,11.2071 l 0,292.4693 c 0,6.2087 -4.99836,11.2071 -11.2071,11.2071 l -490.49089,0 c -6.20873,0 -11.2071,-4.9984 -11.2071,-11.2071 l 0,-292.4693 c 0,-6.2087 4.99837,-11.2071 11.2071,-11.2071 z m 1010.79322,303.6959 c 0,2.901 -2.35172,5.2527 -5.25274,5.2527 -2.90099,0 -5.25273,-2.3517 -5.25273,-5.2527 0,-2.901 2.35174,-5.2527 5.25273,-5.2527 2.90102,0 5.25274,2.3517 5.25274,5.2527 z m -490.52989,0 c 0,2.901 -2.35172,5.2527 -5.25274,5.2527 -2.901,0 -5.25274,-2.3517 -5.25274,-5.2527 0,-2.901 2.35174,-5.2528 5.25274,-5.2528 2.90102,0 5.25274,2.3518 5.25274,5.2528 z m 490.52989,-292.5083 c 0,2.901 -2.35172,5.2528 -5.25274,5.2528 -2.901,0 -5.25274,-2.3518 -5.25274,-5.2528 0,-2.901 2.35174,-5.2527 5.25274,-5.2527 2.90102,0 5.25274,2.3517 5.25274,5.2527 z m -490.52989,0 c 0,2.901 -2.35172,5.2527 -5.25274,5.2527 -2.901,0 -5.25274,-2.3517 -5.25274,-5.2527 0,-2.901 2.35174,-5.2528 5.25274,-5.2528 2.90102,0 5.25274,2.3518 5.25274,5.2528 z m -5.23324,-11.1876 490.49089,0 c 6.20874,0 11.2071,4.9984 11.2071,11.2071 l 0,292.4693 c 0,6.2087 -4.99836,11.2071 -11.2071,11.2071 l -490.49089,0 c -6.20873,0 -11.2071,-4.9984 -11.2071,-11.2071 l 0,-292.4693 c 0,-6.2087 4.99837,-11.2071 11.2071,-11.2071 z m 770.53377,147.3163 c 2.901,0 5.25,2.349 5.25,5.25 0,2.901 -2.349,5.25 -5.25,5.25 -2.901,0 -5.25,-2.349 -5.25,-5.25 0,-2.901 2.349,-5.25 5.25,-5.25 z m -11.1875,-17.2813 0,22.4688 c 0,6.2281 5.0218,11.25 11.25,11.25 l 22.4687,0 0,-5.9375 -11.2187,0 0,-10.5 11.2187,0 0,-5.1563 -12.125,0 0,-12.125 -5.1562,0 0,11.2188 -10.5,0 0,-11.2188 -5.9375,0 z m 16.4375,-24.6562 c 0,2.901 -2.349,5.25 -5.25,5.25 -2.901,0 -5.25,-2.349 -5.25,-5.25 0,-2.901 2.349,-5.25 5.25,-5.25 2.901,0 5.25,2.349 5.25,5.25 z m 17.2812,-11.1875 -22.4687,0 c -6.2282,0 -11.25,5.0219 -11.25,11.25 l 0,22.4687 5.9375,0 0,-11.2187 10.5,0 0,11.2187 5.1562,0 0,-12.125 12.125,0 0,-5.1562 -11.2187,0 0,-10.5 11.2187,0 0,-5.9375 z m 19.4063,58.375 c 0,-2.901 2.349,-5.25 5.25,-5.25 2.901,0 5.25,2.349 5.25,5.25 0,2.901 -2.349,5.25 -5.25,5.25 -2.901,0 -5.25,-2.349 -5.25,-5.25 z m -17.2813,11.1875 22.4688,0 c 6.2281,0 11.25,-5.0219 11.25,-11.25 l 0,-22.4688 -5.9375,0 0,11.2188 -10.5,0 0,-11.2188 -5.1563,0 0,12.125 -12.125,0 0,5.1563 11.2188,0 0,10.5 -11.2188,0 0,5.9375 z m 22.5313,-53.125 c -2.901,0 -5.25,-2.349 -5.25,-5.25 0,-2.901 2.349,-5.25 5.25,-5.25 2.901,0 5.25,2.349 5.25,5.25 0,2.901 -2.349,5.25 -5.25,5.25 z m 11.1875,17.2812 0,-22.4687 c 0,-6.2281 -5.0219,-11.25 -11.25,-11.25 l -22.4688,0 0,5.9375 11.2188,0 0,10.5 -11.2188,0 0,5.1562 12.125,0 0,12.125 5.1563,0 0,-11.2187 10.5,0 0,11.2187 5.9375,0 z m -53.125,-94.2187 c 0,2.901 -2.349,5.25 -5.25,5.25 -2.901,0 -5.25,-2.349 -5.25,-5.25 0,-2.901 2.349,-5.25 5.25,-5.25 2.901,0 5.25,2.349 5.25,5.25 z m 17.2812,-11.1875 -22.4687,0 c -6.2282,0 -11.25,5.0219 -11.25,11.25 l 0,22.4687 5.9375,0 0,-11.2187 10.5,0 0,11.2187 5.1562,0 0,-12.125 12.125,0 0,-5.1562 -11.2187,0 0,-10.5 11.2187,0 0,-5.9375 z m -22.5312,53.125 c 2.901,0 5.25,2.349 5.25,5.25 0,2.901 -2.349,5.25 -5.25,5.25 -2.901,0 -5.25,-2.349 -5.25,-5.25 0,-2.901 2.349,-5.25 5.25,-5.25 z m -11.1875,-17.2813 0,22.4688 c 0,6.2281 5.0218,11.25 11.25,11.25 l 22.4687,0 0,-5.9375 -11.2187,0 0,-10.5 11.2187,0 0,-5.1563 -12.125,0 0,-12.125 -5.1562,0 0,11.2188 -10.5,0 0,-11.2188 -5.9375,0 z m 53.125,22.5313 c 0,-2.901 2.349,-5.25 5.25,-5.25 2.901,0 5.25,2.349 5.25,5.25 0,2.901 -2.349,5.25 -5.25,5.25 -2.901,0 -5.25,-2.349 -5.25,-5.25 z m -17.2813,11.1875 22.4688,0 c 6.2281,0 11.25,-5.0219 11.25,-11.25 l 0,-22.4688 -5.9375,0 0,11.2188 -10.5,0 0,-11.2188 -5.1563,0 0,12.125 -12.125,0 0,5.1563 11.2188,0 0,10.5 -11.2188,0 0,5.9375 z m 22.5313,-53.125 c -2.901,0 -5.25,-2.349 -5.25,-5.25 0,-2.901 2.349,-5.25 5.25,-5.25 2.901,0 5.25,2.349 5.25,5.25 0,2.901 -2.349,5.25 -5.25,5.25 z m 11.1875,17.2812 0,-22.4687 c 0,-6.2281 -5.0219,-11.25 -11.25,-11.25 l -22.4688,0 0,5.9375 11.2188,0 0,10.5 -11.2188,0 0,5.1562 12.125,0 0,12.125 5.1563,0 0,-11.2187 10.5,0 0,11.2187 5.9375,0 z m -81.8438,236.1573 c -40.1862,0 -80.3723,0 -120.55855,0 0,-89.9587 0,-179.9173 0,-269.876 40.18625,0 80.37235,0 120.55855,0 0,89.9587 0,179.9173 0,269.876 z m -243.24198,-269.876 c 40.18614,0 80.37233,0 120.55843,0 0,89.9587 0,179.9173 0,269.876 -40.1861,0 -80.37229,0 -120.55843,0 0,-89.9587 0,-179.9173 0,-269.876 z m 713.24008,149.3175 c 0,40.1862 0,80.3723 0,120.5585 -155.9574,0 -311.914,0 -467.8714,0 0,-40.1862 0,-80.3723 0,-120.5585 155.9574,0 311.914,0 467.8714,0 z" />
    <path
       id="path4563-7-7"
       style="fill:none;stroke:#000000;stroke-width:0.03543307;stroke-miterlimit:4;stroke-opacity:1;stroke-dasharray:none"
       d="m 417.93121,1969.6527 c 0,2.9011 -2.35172,5.2528 -5.25274,5.2528 -2.901,0 -5.25274,-2.3517 -5.25274,-5.2528 0,-2.901 2.35174,-5.2527 5.25274,-5.2527 2.90102,0 5.25274,2.3517 5.25274,5.2527 z m -584.98863,0 c 0,2.901 -2.35172,5.2528 -5.25274,5.2528 -2.901,0 -5.25274,-2.3518 -5.25274,-5.2528 0,-2.901 2.35174,-5.2527 5.25274,-5.2527 2.90102,0 5.25274,2.3517 5.25274,5.2527 z M 417.93121,1677.164 c 0,2.901 -2.35172,5.2527 -5.25274,5.2527 -2.901,0 -5.25274,-2.3517 -5.25274,-5.2527 0,-2.901 2.35174,-5.2527 5.25274,-5.2527 2.90102,0 5.25274,2.3517 5.25274,5.2527 z m -584.98863,0 c 0,2.901 -2.35172,5.2527 -5.25274,5.2527 -2.901,0 -5.25274,-2.3517 -5.25274,-5.2527 0,-2.901 2.35174,-5.2528 5.25274,-5.2528 2.90102,0 5.25274,2.3518 5.25274,5.2528 z m 557.18307,236.2412 c 0,18.6077 -15.08468,33.6923 -33.69258,33.6923 -18.6079,0 -33.69258,-15.0846 -33.69258,-33.6923 0,-18.6078 15.08468,-33.6924 33.69258,-33.6924 18.6079,0 33.69258,15.0846 33.69258,33.6924 z m -94.46242,0 c 0,18.6077 -15.08468,33.6923 -33.69257,33.6923 -18.6079,0 -33.69258,-15.0846 -33.69258,-33.6923 0,-18.6078 15.08468,-33.6924 33.69258,-33.6924 18.60789,0 33.69257,15.0846 33.69257,33.6924 z m -94.50884,0 c 0,18.6077 -15.08468,33.6923 -33.69258,33.6923 -18.6079,0 -33.69258,-15.0846 -33.69258,-33.6923 0,-18.6078 15.08468,-33.6924 33.69258,-33.6924 18.6079,0 33.69258,15.0846 33.69258,33.6924 z m -94.50886,0 c 0,18.6077 -15.084671,33.6923 -33.692568,33.6923 -18.6079,0 -33.69258,-15.0846 -33.69258,-33.6923 0,-18.6078 15.08468,-33.6924 33.69258,-33.6924 18.607897,0 33.692568,15.0846 33.692568,33.6924 z m -94.508845,0 c 0,18.6077 -15.0846785,33.6923 -33.692576,33.6923 -18.6079,0 -33.69258,-15.0846 -33.69258,-33.6923 0,-18.6078 15.08468,-33.6924 33.69258,-33.6924 18.6078975,0 33.692576,15.0846 33.692576,33.6924 z m -94.508853,0 c 0,18.6077 -15.084678,33.6923 -33.692572,33.6923 -18.6079,0 -33.69258,-15.0846 -33.69258,-33.6923 0,-18.6078 15.08468,-33.6924 33.69258,-33.6924 18.607894,0 33.692572,15.0846 33.692572,33.6924 z m -89.965382,-247.4288 585.04341,0 c 6.18276,0 11.16021,4.9775 11.16021,11.1602 l 0,292.5435 c 0,6.1828 -4.97745,11.1602 -11.16021,11.1602 l -585.04341,0 c -6.18275,0 -11.16021,-4.9774 -11.16021,-11.1602 l 0,-292.5435 c 0,-6.1827 4.97746,-11.1602 11.16021,-11.1602 z M 1027.42,1969.6527 c 0,2.9011 -2.3517,5.2528 -5.2527,5.2528 -2.901,0 -5.2527,-2.3517 -5.2527,-5.2528 0,-2.901 2.3517,-5.2527 5.2527,-5.2527 2.901,0 5.2527,2.3517 5.2527,5.2527 z m -584.98859,0 c 0,2.901 -2.35172,5.2528 -5.25274,5.2528 -2.901,0 -5.25274,-2.3518 -5.25274,-5.2528 0,-2.901 2.35174,-5.2527 5.25274,-5.2527 2.90102,0 5.25274,2.3517 5.25274,5.2527 z M 1027.42,1677.164 c 0,2.901 -2.3517,5.2527 -5.2527,5.2527 -2.901,0 -5.2527,-2.3517 -5.2527,-5.2527 0,-2.901 2.3517,-5.2527 5.2527,-5.2527 2.901,0 5.2527,2.3517 5.2527,5.2527 z m -584.98859,0 c 0,2.901 -2.35172,5.2527 -5.25274,5.2527 -2.901,0 -5.25274,-2.3517 -5.25274,-5.2527 0,-2.901 2.35174,-5.2528 5.25274,-5.2528 2.90102,0 5.25274,2.3518 5.25274,5.2528 z m -5.28013,-11.1876 585.04342,0 c 6.1828,0 11.1602,4.9775 11.1602,11.1602 l 0,292.5435 c 0,6.1828 -4.9774,11.1602 -11.1602,11.1602 l -585.04342,0 c -6.18275,0 -11.16021,-4.9774 -11.16021,-11.1602 l 0,-292.5435 c 0,-6.1827 4.97746,-11.1602 11.16021,-11.1602 z m 865.03932,147.3065 c 2.901,0 5.25,2.349 5.25,5.25 0,2.901 -2.349,5.25 -5.25,5.25 -2.901,0 -5.25,-2.349 -5.25,-5.25 0,-2.901 2.349,-5.25 5.25,-5.25 z m -11.1875,-17.2813 0,22.4688 c 0,6.2281 5.0219,11.25 11.25,11.25 l 22.4688,0 0,-5.9375 -11.2188,0 0,-10.5 11.2188,0 0,-5.1563 -12.125,0 0,-12.125 -5.1563,0 0,11.2188 -10.5,0 0,-11.2188 -5.9375,0 z m 16.4375,-24.6562 c 0,2.901 -2.349,5.25 -5.25,5.25 -2.901,0 -5.25,-2.349 -5.25,-5.25 0,-2.901 2.349,-5.25 5.25,-5.25 2.901,0 5.25,2.349 5.25,5.25 z m 17.2813,-11.1875 -22.4688,0 c -6.2281,0 -11.25,5.0219 -11.25,11.25 l 0,22.4687 5.9375,0 0,-11.2187 10.5,0 0,11.2187 5.1563,0 0,-12.125 12.125,0 0,-5.1562 -11.2188,0 0,-10.5 11.2188,0 0,-5.9375 z m 19.4062,58.375 c 0,-2.901 2.349,-5.25 5.25,-5.25 2.901,0 5.25,2.349 5.25,5.25 0,2.901 -2.349,5.25 -5.25,5.25 -2.901,0 -5.25,-2.349 -5.25,-5.25 z m -17.2812,11.1875 22.4687,0 c 6.2281,0 11.25,-5.0219 11.25,-11.25 l 0,-22.4688 -5.9375,0 0,11.2188 -10.5,0 0,-11.2188 -5.1562,0 0,12.125 -12.125,0 0,5.1563 11.2187,0 0,10.5 -11.2187,0 0,5.9375 z m 22.5312,-53.125 c -2.901,0 -5.25,-2.349 -5.25,-5.25 0,-2.901 2.349,-5.25 5.25,-5.25 2.901,0 5.25,2.349 5.25,5.25 0,2.901 -2.349,5.25 -5.25,5.25 z m 11.1875,17.2812 0,-22.4687 c 0,-6.2281 -5.0219,-11.25 -11.25,-11.25 l -22.4687,0 0,5.9375 11.2187,0 0,10.5 -11.2187,0 0,5.1562 12.125,0 0,12.125 5.1562,0 0,-11.2187 10.5,0 0,11.2187 5.9375,0 z m -53.125,-94.2187 c 0,2.901 -2.349,5.25 -5.25,5.25 -2.901,0 -5.25,-2.349 -5.25,-5.25 0,-2.901 2.349,-5.25 5.25,-5.25 2.901,0 5.25,2.349 5.25,5.25 z m 17.2813,-11.1875 -22.4688,0 c -6.2281,0 -11.25,5.0219 -11.25,11.25 l 0,22.4687 5.9375,0 0,-11.2187 10.5,0 0,11.2187 5.1563,0 0,-12.125 12.125,0 0,-5.1562 -11.2188,0 0,-10.5 11.2188,0 0,-5.9375 z m -22.5313,53.125 c 2.901,0 5.25,2.349 5.25,5.25 0,2.901 -2.349,5.25 -5.25,5.25 -2.901,0 -5.25,-2.349 -5.25,-5.25 0,-2.901 2.349,-5.25 5.25,-5.25 z m -11.1875,-17.2813 0,22.4688 c 0,6.2281 5.0219,11.25 11.25,11.25 l 22.4688,0 0,-5.9375 -11.2188,0 0,-10.5 11.2188,0 0,-5.1563 -12.125,0 0,-12.125 -5.1563,0 0,11.2188 -10.5,0 0,-11.2188 -5.9375,0 z m 53.125,22.5313 c 0,-2.901 2.349,-5.25 5.25,-5.25 2.901,0 5.25,2.349 5.25,5.25 0,2.901 -2.349,5.25 -5.25,5.25 -2.901,0 -5.25,-2.349 -5.25,-5.25 z m -17.2812,11.1875 22.4687,0 c 6.2281,0 11.25,-5.0219 11.25,-11.25 l 0,-22.4688 -5.9375,0 0,11.2188 -10.5,0 0,-11.2188 -5.1562,0 0,12.125 -12.125,0 0,5.1563 11.2187,0 0,10.5 -11.2187,0 0,5.9375 z m 22.5312,-53.125 c -2.901,0 -5.25,-2.349 -5.25,-5.25 0,-2.901 2.349,-5.25 5.25,-5.25 2.901,0 5.25,2.349 5.25,5.25 0,2.901 -2.349,5.25 -5.25,5.25 z m 11.1875,17.2812 0,-22.4687 c 0,-6.2281 -5.0219,-11.25 -11.25,-11.25 l -22.4687,0 0,5.9375 11.2187,0 0,10.5 -11.2187,0 0,5.1562 12.125,0 0,12.125 5.1562,0 0,-11.2187 10.5,0 0,11.2187 5.9375,0 z m -81.8438,236.1573 c -40.1861,0 -80.3723,0 -120.5584,0 0,-89.9587 0,-179.9173 0,-269.876 40.1861,0 80.3723,0 120.5584,0 0,89.9587 0,179.9173 0,269.876 z m -243.2419,-269.876 c 40.1862,0 80.3723,0 120.5585,0 0,89.9587 0,179.9173 0,269.876 -40.1862,0 -80.3723,0 -120.5585,0 0,-89.9587 0,-179.9173 0,-269.876 z m 807.74,149.3176 c 0,40.1861 0,80.3723 0,120.5584 -187.4573,0 -374.9139,0 -562.3712,0 0,-40.1861 0,-80.3723 0,-120.5584 187.4573,0 374.9139,0 562.3712,0 z" />
    <path
       id="path4563-7-95"
       style="fill:none;stroke:#000000;stroke-width:0.03543307;stroke-miterlimit:4;stroke-opacity:1;stroke-dasharray:none"
       d="m 484.60636,2268.4001 c 0,18.6077 -15.08468,33.6923 -33.69257,33.6923 -18.6079,0 -33.69258,-15.0846 -33.69258,-33.6923 0,-18.6078 15.08468,-33.6924 33.69258,-33.6924 18.60789,0 33.69257,15.0846 33.69257,33.6924 z m -94.41876,0 c 0,18.6077 -15.08468,33.6923 -33.69257,33.6923 -18.6079,0 -33.69258,-15.0846 -33.69258,-33.6923 0,-18.6078 15.08468,-33.6924 33.69258,-33.6924 18.60789,0 33.69257,15.0846 33.69257,33.6924 z m -94.50885,0 c 0,18.6077 -15.08468,33.6923 -33.69257,33.6923 -18.6079,0 -33.69258,-15.0846 -33.69258,-33.6923 0,-18.6078 15.08468,-33.6924 33.69258,-33.6924 18.60789,0 33.69257,15.0846 33.69257,33.6924 z m -94.50886,0 c 0,18.6077 -15.08468,33.6923 -33.69257,33.6923 -18.6079,0 -33.69258,-15.0846 -33.69258,-33.6923 0,-18.6078 15.08468,-33.6924 33.69258,-33.6924 18.60789,0 33.69257,15.0846 33.69257,33.6924 z m -94.50885,0 c 0,18.6077 -15.084682,33.6923 -33.692576,33.6923 -18.6079,0 -33.69258,-15.0846 -33.69258,-33.6923 0,-18.6078 15.08468,-33.6924 33.69258,-33.6924 18.607894,0 33.692576,15.0846 33.692576,33.6924 z m -94.508854,0 c 0,18.6077 -15.084678,33.6923 -33.692572,33.6923 -18.6079,0 -33.69258,-15.0846 -33.69258,-33.6923 0,-18.6078 15.08468,-33.6924 33.69258,-33.6924 18.607894,0 33.692572,15.0846 33.692572,33.6924 z m -94.50885,0 c 0,18.6077 -15.084682,33.6923 -33.692576,33.6923 -18.6079,0 -33.69258,-15.0846 -33.69258,-33.6923 0,-18.6078 15.08468,-33.6924 33.69258,-33.6924 18.607894,0 33.692576,15.0846 33.692576,33.6924 z m -84.700756,-236.2472 c 0,2.901 -2.35172,5.2527 -5.25274,5.2527 -2.901,0 -5.25274,-2.3517 -5.25274,-5.2527 0,-2.901 2.35174,-5.2527 5.25274,-5.2527 2.90102,0 5.25274,2.3517 5.25274,5.2527 z m 679.48485,0 c 0,2.901 -2.35172,5.2527 -5.25274,5.2527 -2.901,0 -5.25274,-2.3517 -5.25274,-5.2527 0,-2.901 2.35174,-5.2528 5.25274,-5.2528 2.90102,0 5.25274,2.3518 5.25274,5.2528 z m 0,292.5005 c 0,2.9011 -2.35172,5.2528 -5.25274,5.2528 -2.901,0 -5.25274,-2.3517 -5.25274,-5.2528 0,-2.901 2.35174,-5.2527 5.25274,-5.2527 2.90102,0 5.25274,2.3517 5.25274,5.2527 z m -679.48485,0 c 0,2.901 -2.35172,5.2528 -5.25274,5.2528 -2.901,0 -5.25274,-2.3518 -5.25274,-5.2528 0,-2.901 2.35174,-5.2527 5.25274,-5.2527 2.90102,0 5.25274,2.3517 5.25274,5.2527 z m -5.23314,-303.6881 679.44565,0 c 6.20879,0 11.2072,4.9984 11.2072,11.2072 l 0,292.4613 c 0,6.2088 -4.99841,11.2072 -11.2072,11.2072 l -679.44565,0 c -6.20879,0 -11.2072,-4.9984 -11.2072,-11.2072 l 0,-292.4613 c 0,-6.2088 4.99841,-11.2072 11.2072,-11.2072 z m 709.21819,11.1876 c 0,2.901 -2.35172,5.2527 -5.25274,5.2527 -2.901,0 -5.25274,-2.3517 -5.25274,-5.2527 0,-2.901 2.35174,-5.2527 5.25274,-5.2527 2.90102,0 5.25274,2.3517 5.25274,5.2527 z m 679.48487,0 c 0,2.901 -2.3517,5.2527 -5.2527,5.2527 -2.901,0 -5.2528,-2.3517 -5.2528,-5.2527 0,-2.901 2.3518,-5.2528 5.2528,-5.2528 2.901,0 5.2527,2.3518 5.2527,5.2528 z m 0,292.5005 c 0,2.9011 -2.3517,5.2528 -5.2527,5.2528 -2.901,0 -5.2528,-2.3517 -5.2528,-5.2528 0,-2.901 2.3518,-5.2527 5.2528,-5.2527 2.901,0 5.2527,2.3517 5.2527,5.2527 z m -679.48487,0 c 0,2.901 -2.35172,5.2528 -5.25274,5.2528 -2.901,0 -5.25274,-2.3518 -5.25274,-5.2528 0,-2.901 2.35174,-5.2527 5.25274,-5.2527 2.90102,0 5.25274,2.3517 5.25274,5.2527 z m -5.23314,-303.6881 679.44571,0 c 6.2088,0 11.2072,4.9984 11.2072,11.2072 l 0,292.4613 c 0,6.2088 -4.9984,11.2072 -11.2072,11.2072 l -679.44571,0 c -6.20879,0 -11.2072,-4.9984 -11.2072,-11.2072 l 0,-292.4613 c 0,-6.2088 4.99841,-11.2072 11.2072,-11.2072 z m 959.48861,147.3123 c 2.901,0 5.25,2.349 5.25,5.25 0,2.901 -2.349,5.25 -5.25,5.25 -2.901,0 -5.25,-2.349 -5.25,-5.25 0,-2.901 2.349,-5.25 5.25,-5.25 z m -11.1875,-17.2812 0,22.4687 c 0,6.2282 5.0219,11.25 11.25,11.25 l 22.4688,0 0,-5.9375 -11.2188,0 0,-10.5 11.2188,0 0,-5.1562 -12.125,0 0,-12.125 -5.1563,0 0,11.2187 -10.5,0 0,-11.2187 -5.9375,0 z m 16.4375,-24.6563 c 0,2.9011 -2.349,5.25 -5.25,5.25 -2.901,0 -5.25,-2.3489 -5.25,-5.25 0,-2.9009 2.349,-5.25 5.25,-5.25 2.901,0 5.25,2.3491 5.25,5.25 z m 17.2813,-11.1875 -22.4688,0 c -6.2281,0 -11.25,5.0219 -11.25,11.25 l 0,22.4688 5.9375,0 0,-11.2188 10.5,0 0,11.2188 5.1563,0 0,-12.125 12.125,0 0,-5.1563 -11.2188,0 0,-10.5 11.2188,0 0,-5.9375 z m 19.4062,58.375 c 0,-2.901 2.349,-5.25 5.25,-5.25 2.901,0 5.25,2.349 5.25,5.25 0,2.901 -2.349,5.25 -5.25,5.25 -2.901,0 -5.25,-2.349 -5.25,-5.25 z m -17.2812,11.1875 22.4687,0 c 6.2281,0 11.25,-5.0218 11.25,-11.25 l 0,-22.4687 -5.9375,0 0,11.2187 -10.5,0 0,-11.2187 -5.1562,0 0,12.125 -12.125,0 0,5.1562 11.2187,0 0,10.5 -11.2187,0 0,5.9375 z m 22.5312,-53.125 c -2.901,0 -5.25,-2.349 -5.25,-5.25 0,-2.901 2.349,-5.25 5.25,-5.25 2.901,0 5.25,2.349 5.25,5.25 0,2.901 -2.349,5.25 -5.25,5.25 z m 11.1875,17.2813 0,-22.4688 c 0,-6.2281 -5.0219,-11.25 -11.25,-11.25 l -22.4687,0 0,5.9375 11.2187,0 0,10.5 -11.2187,0 0,5.1563 12.125,0 0,12.125 5.1562,0 0,-11.2188 10.5,0 0,11.2188 5.9375,0 z m -53.125,-94.2188 c 0,2.9011 -2.349,5.25 -5.25,5.25 -2.901,0 -5.25,-2.3489 -5.25,-5.25 0,-2.9009 2.349,-5.25 5.25,-5.25 2.901,0 5.25,2.3491 5.25,5.25 z m 17.2813,-11.1875 -22.4688,0 c -6.2281,0 -11.25,5.0219 -11.25,11.25 l 0,22.4688 5.9375,0 0,-11.2188 10.5,0 0,11.2188 5.1563,0 0,-12.125 12.125,0 0,-5.1563 -11.2188,0 0,-10.5 11.2188,0 0,-5.9375 z m -22.5313,53.125 c 2.901,0 5.25,2.349 5.25,5.25 0,2.901 -2.349,5.25 -5.25,5.25 -2.901,0 -5.25,-2.349 -5.25,-5.25 0,-2.901 2.349,-5.25 5.25,-5.25 z m -11.1875,-17.2812 0,22.4687 c 0,6.2282 5.0219,11.25 11.25,11.25 l 22.4688,0 0,-5.9375 -11.2188,0 0,-10.5 11.2188,0 0,-5.1562 -12.125,0 0,-12.125 -5.1563,0 0,11.2187 -10.5,0 0,-11.2187 -5.9375,0 z m 53.125,22.5312 c 0,-2.901 2.349,-5.25 5.25,-5.25 2.901,0 5.25,2.349 5.25,5.25 0,2.901 -2.349,5.25 -5.25,5.25 -2.901,0 -5.25,-2.349 -5.25,-5.25 z m -17.2812,11.1875 22.4687,0 c 6.2281,0 11.25,-5.0218 11.25,-11.25 l 0,-22.4687 -5.9375,0 0,11.2187 -10.5,0 0,-11.2187 -5.1562,0 0,12.125 -12.125,0 0,5.1562 11.2187,0 0,10.5 -11.2187,0 0,5.9375 z m 22.5312,-53.125 c -2.901,0 -5.25,-2.349 -5.25,-5.25 0,-2.901 2.349,-5.25 5.25,-5.25 2.901,0 5.25,2.349 5.25,5.25 0,2.901 -2.349,5.25 -5.25,5.25 z m 11.1875,17.2813 0,-22.4688 c 0,-6.2281 -5.0219,-11.25 -11.25,-11.25 l -22.4687,0 0,5.9375 11.2187,0 0,10.5 -11.2187,0 0,5.1563 12.125,0 0,12.125 5.1562,0 0,-11.2188 10.5,0 0,11.2188 5.9375,0 z m -81.8438,236.1573 c -40.1861,0 -80.3723,0 -120.5584,0 0,-89.9587 0,-179.9174 0,-269.8761 40.1861,0 80.3723,0 120.5584,0 0,89.9587 0,179.9174 0,269.8761 z m -243.2419,-269.8761 c 40.1861,0 80.3723,0 120.5585,0 0,89.9587 0,179.9174 0,269.8761 -40.1862,0 -80.3724,0 -120.5585,0 0,-89.9587 0,-179.9174 0,-269.8761 z m 902.2399,149.3177 c 0,40.1861 0,80.3723 0,120.5584 -218.9571,0 -437.9137,0 -656.8711,0 0,-40.1861 0,-80.3723 0,-120.5584 218.9574,0 437.914,0 656.8711,0 z" />
    <path
       id="path4563-7-4"
       style="fill:none;stroke:#000000;stroke-width:0.03543306;stroke-miterlimit:4;stroke-opacity:1;stroke-dasharray:none"
       d="m 579.12791,2623.3849 c 0,18.6077 -15.08468,33.6923 -33.69258,33.6923 -18.6079,0 -33.69258,-15.0846 -33.69258,-33.6923 0,-18.6078 15.08468,-33.6924 33.69258,-33.6924 18.6079,0 33.69258,15.0846 33.69258,33.6924 z m -94.50885,0 c 0,18.6077 -15.08469,33.6923 -33.69258,33.6923 -18.6079,0 -33.69258,-15.0846 -33.69258,-33.6923 0,-18.6078 15.08468,-33.6924 33.69258,-33.6924 18.60789,0 33.69258,15.0846 33.69258,33.6924 z m -94.50885,0 c 0,18.6077 -15.08468,33.6923 -33.69258,33.6923 -18.6079,0 -33.69258,-15.0846 -33.69258,-33.6923 0,-18.6078 15.08468,-33.6924 33.69258,-33.6924 18.6079,0 33.69258,15.0846 33.69258,33.6924 z m -94.50885,0 c 0,18.6077 -15.08468,33.6923 -33.69257,33.6923 -18.6079,0 -33.69258,-15.0846 -33.69258,-33.6923 0,-18.6078 15.08468,-33.6924 33.69258,-33.6924 18.60789,0 33.69257,15.0846 33.69257,33.6924 z m -94.43806,0 c 0,18.6077 -15.08468,33.6923 -33.69258,33.6923 -18.6079,0 -33.69258,-15.0846 -33.69258,-33.6923 0,-18.6078 15.08468,-33.6924 33.69258,-33.6924 18.6079,0 33.69258,15.0846 33.69258,33.6924 z m -94.50885,0 c 0,18.6077 -15.084686,33.6923 -33.69258,33.6923 -18.6079,0 -33.69258,-15.0846 -33.69258,-33.6923 0,-18.6078 15.08468,-33.6924 33.69258,-33.6924 18.607894,0 33.69258,15.0846 33.69258,33.6924 z m -94.508854,0 c 0,18.6077 -15.0846819,33.6923 -33.692576,33.6923 -18.6079,0 -33.69258,-15.0846 -33.69258,-33.6923 0,-18.6078 15.08468,-33.6924 33.69258,-33.6924 18.6078941,0 33.692576,15.0846 33.692576,33.6924 z m -94.50885,0 c 0,18.6077 -15.084682,33.6923 -33.692576,33.6923 -18.6079,0 -33.69258,-15.0846 -33.69258,-33.6923 0,-18.6078 15.08468,-33.6924 33.69258,-33.6924 18.607894,0 33.692576,15.0846 33.692576,33.6924 z m -84.694166,56.2379 c 0,2.9011 -2.35172,5.2528 -5.25274,5.2528 -2.901,0 -5.25274,-2.3517 -5.25274,-5.2528 0,-2.901 2.35174,-5.2527 5.25274,-5.2527 2.90102,0 5.25274,2.3517 5.25274,5.2527 z m 773.9998,0 c 0,2.9011 -2.35172,5.2528 -5.25274,5.2528 -2.901,0 -5.25274,-2.3517 -5.25274,-5.2528 0,-2.901 2.35174,-5.2527 5.25274,-5.2527 2.90102,0 5.25274,2.3517 5.25274,5.2527 z m 0,-292.4692 c 0,2.9011 -2.35172,5.2528 -5.25274,5.2528 -2.901,0 -5.25274,-2.3517 -5.25274,-5.2528 0,-2.901 2.35174,-5.2527 5.25274,-5.2527 2.90102,0 5.25274,2.3517 5.25274,5.2527 z m -773.9998,0 c 0,2.9011 -2.35172,5.2528 -5.25274,5.2528 -2.901,0 -5.25274,-2.3517 -5.25274,-5.2528 0,-2.901 2.35174,-5.2527 5.25274,-5.2527 2.90102,0 5.25274,2.3517 5.25274,5.2527 z m -5.21289,-11.1875 773.92011,0 c 6.22,0 11.22744,5.0074 11.22744,11.2274 l 0,292.3894 c 0,6.22 -5.00744,11.2275 -11.22744,11.2275 l -773.92011,0 c -6.22001,0 -11.22745,-5.0075 -11.22745,-11.2275 l 0,-292.3894 c 0,-6.22 5.00744,-11.2274 11.22745,-11.2274 z m 803.71289,303.6567 c 0,2.9011 -2.35172,5.2528 -5.25274,5.2528 -2.901,0 -5.25274,-2.3517 -5.25274,-5.2528 0,-2.901 2.35174,-5.2527 5.25274,-5.2527 2.90102,0 5.25274,2.3517 5.25274,5.2527 z m 773.99982,0 c 0,2.9011 -2.3517,5.2528 -5.2527,5.2528 -2.901,0 -5.2528,-2.3517 -5.2528,-5.2528 0,-2.901 2.3518,-5.2527 5.2528,-5.2527 2.901,0 5.2527,2.3517 5.2527,5.2527 z m 0,-292.4692 c 0,2.9011 -2.3517,5.2528 -5.2527,5.2528 -2.901,0 -5.2528,-2.3517 -5.2528,-5.2528 0,-2.901 2.3518,-5.2527 5.2528,-5.2527 2.901,0 5.2527,2.3517 5.2527,5.2527 z m -773.99982,0 c 0,2.9011 -2.35172,5.2528 -5.25274,5.2528 -2.901,0 -5.25274,-2.3517 -5.25274,-5.2528 0,-2.901 2.35174,-5.2527 5.25274,-5.2527 2.90102,0 5.25274,2.3517 5.25274,5.2527 z m -5.21289,-11.1875 773.92011,0 c 6.22,0 11.2275,5.0074 11.2275,11.2274 l 0,292.3894 c 0,6.22 -5.0075,11.2275 -11.2275,11.2275 l -773.92011,0 c -6.22001,0 -11.22745,-5.0075 -11.22745,-11.2275 l 0,-292.3894 c 0,-6.22 5.00744,-11.2274 11.22745,-11.2274 z M 1680.213,2523.2628 c 2.901,0 5.25,2.349 5.25,5.25 0,2.901 -2.349,5.25 -5.25,5.25 -2.901,0 -5.25,-2.349 -5.25,-5.25 0,-2.901 2.349,-5.25 5.25,-5.25 z m -11.1875,-17.2812 0,22.4687 c 0,6.2281 5.0219,11.25 11.25,11.25 l 22.4687,0 0,-5.9375 -11.2187,0 0,-10.5 11.2187,0 0,-5.1562 -12.125,0 0,-12.125 -5.1562,0 0,11.2187 -10.5,0 0,-11.2187 -5.9375,0 z m 16.4375,-24.6563 c 0,2.901 -2.349,5.25 -5.25,5.25 -2.901,0 -5.25,-2.349 -5.25,-5.25 0,-2.901 2.349,-5.25 5.25,-5.25 2.901,0 5.25,2.349 5.25,5.25 z m 17.2812,-11.1875 -22.4687,0 c -6.2281,0 -11.25,5.0219 -11.25,11.25 l 0,22.4688 5.9375,0 0,-11.2188 10.5,0 0,11.2188 5.1562,0 0,-12.125 12.125,0 0,-5.1563 -11.2187,0 0,-10.5 11.2187,0 0,-5.9375 z m 19.4063,58.375 c 0,-2.901 2.349,-5.25 5.25,-5.25 2.901,0 5.25,2.349 5.25,5.25 0,2.901 -2.349,5.25 -5.25,5.25 -2.901,0 -5.25,-2.349 -5.25,-5.25 z m -17.2813,11.1875 22.4688,0 c 6.2281,0 11.25,-5.0219 11.25,-11.25 l 0,-22.4687 -5.9375,0 0,11.2187 -10.5,0 0,-11.2187 -5.1563,0 0,12.125 -12.125,0 0,5.1562 11.2188,0 0,10.5 -11.2188,0 0,5.9375 z m 22.5313,-53.125 c -2.901,0 -5.25,-2.349 -5.25,-5.25 0,-2.901 2.349,-5.25 5.25,-5.25 2.901,0 5.25,2.349 5.25,5.25 0,2.901 -2.349,5.25 -5.25,5.25 z m 11.1875,17.2813 0,-22.4688 c 0,-6.2281 -5.0219,-11.25 -11.25,-11.25 l -22.4688,0 0,5.9375 11.2188,0 0,10.5 -11.2188,0 0,5.1562 12.125,0 0,12.1251 5.1563,0 0,-11.2188 10.5,0 0,11.2188 5.9375,0 z m -53.125,-94.2188 c 0,2.901 -2.349,5.25 -5.25,5.25 -2.901,0 -5.25,-2.349 -5.25,-5.25 0,-2.901 2.349,-5.25 5.25,-5.25 2.901,0 5.25,2.349 5.25,5.25 z m 17.2812,-11.1875 -22.4687,0 c -6.2281,0 -11.25,5.0219 -11.25,11.25 l 0,22.4688 5.9375,0 0,-11.2188 10.5,0 0,11.2188 5.1562,0 0,-12.125 12.125,0 0,-5.1563 -11.2187,0 0,-10.5 11.2187,0 0,-5.9375 z m -22.5312,53.125 c 2.901,0 5.25,2.349 5.25,5.25 0,2.901 -2.349,5.25 -5.25,5.25 -2.901,0 -5.25,-2.349 -5.25,-5.25 0,-2.901 2.349,-5.25 5.25,-5.25 z m -11.1875,-17.2812 0,22.4687 c 0,6.2281 5.0219,11.25 11.25,11.25 l 22.4687,0 0,-5.9375 -11.2187,0 0,-10.5 11.2187,0 0,-5.1562 -12.125,0 0,-12.125 -5.1562,0 0,11.2187 -10.5,0 0,-11.2187 -5.9375,0 z m 53.125,22.5312 c 0,-2.901 2.349,-5.25 5.25,-5.25 2.901,0 5.25,2.349 5.25,5.25 0,2.901 -2.349,5.25 -5.25,5.25 -2.901,0 -5.25,-2.349 -5.25,-5.25 z m -17.2813,11.1875 22.4688,0 c 6.2281,0 11.25,-5.0219 11.25,-11.25 l 0,-22.4688 -5.9375,0 0,11.2188 -10.5,0 0,-11.2188 -5.1563,0 0,12.125 -12.125,0 0,5.1563 11.2188,0 0,10.5 -11.2188,0 0,5.9375 z m 22.5313,-53.125 c -2.901,0 -5.25,-2.349 -5.25,-5.25 0,-2.901 2.349,-5.25 5.25,-5.25 2.901,0 5.25,2.349 5.25,5.25 0,2.901 -2.349,5.25 -5.25,5.25 z m 11.1875,17.2812 0,-22.4687 c 0,-6.2281 -5.0219,-11.25 -11.25,-11.25 l -22.4688,0 0,5.9375 11.2188,0 0,10.5 -11.2188,0 0,5.1562 12.125,0 0,12.125 5.1563,0 0,-11.2187 10.5,0 0,11.2187 5.9375,0 z m -81.8438,236.1573 c -40.1861,0 -80.3723,0 -120.5585,0 0,-89.9586 0,-179.9173 0,-269.8761 40.1862,0 80.3724,0 120.5585,0 0,89.9588 0,179.9175 0,269.8761 z m -243.2419,-269.8761 c 40.1861,0 80.3723,0 120.5584,0 0,89.9588 0,179.9175 0,269.8761 -40.1861,0 -80.3723,0 -120.5584,0 0,-89.9586 0,-179.9173 0,-269.8761 z m 996.7399,149.3176 c 0,40.1862 0,80.3723 0,120.5585 -250.4567,0 -500.9142,0 -751.371,0 0,-40.1862 0,-80.3723 0,-120.5585 250.4568,0 500.9143,0 751.371,0 z" />
    <path
       id="path4563-7-3"
       style="fill:none;stroke:#000000;stroke-width:0.03543308;stroke-miterlimit:4;stroke-opacity:1;stroke-dasharray:none"
       d="m 673.60541,2979.5608 c 0,18.6077 -15.08468,33.6923 -33.69257,33.6923 -18.6079,0 -33.69258,-15.0846 -33.69258,-33.6923 0,-18.6078 15.08468,-33.6924 33.69258,-33.6924 18.60789,0 33.69257,15.0846 33.69257,33.6924 z m -94.50885,0 c 0,18.6077 -15.08468,33.6923 -33.69257,33.6923 -18.6079,0 -33.69258,-15.0846 -33.69258,-33.6923 0,-18.6078 15.08468,-33.6924 33.69258,-33.6924 18.60789,0 33.69257,15.0846 33.69257,33.6924 z m -94.50884,0 c 0,18.6077 -15.08468,33.6923 -33.69258,33.6923 -18.6079,0 -33.69258,-15.0846 -33.69258,-33.6923 0,-18.6078 15.08468,-33.6924 33.69258,-33.6924 18.6079,0 33.69258,15.0846 33.69258,33.6924 z m -94.50885,0 c 0,18.6077 -15.08469,33.6923 -33.69258,33.6923 -18.6079,0 -33.69258,-15.0846 -33.69258,-33.6923 0,-18.6078 15.08468,-33.6924 33.69258,-33.6924 18.60789,0 33.69258,15.0846 33.69258,33.6924 z m -94.44893,0 c 0,18.6077 -15.08468,33.6923 -33.69258,33.6923 -18.6079,0 -33.69258,-15.0846 -33.69258,-33.6923 0,-18.6078 15.08468,-33.6924 33.69258,-33.6924 18.6079,0 33.69258,15.0846 33.69258,33.6924 z m -94.44894,0 c 0,18.6077 -15.08469,33.6923 -33.69258,33.6923 -18.6079,0 -33.69258,-15.0846 -33.69258,-33.6923 0,-18.6078 15.08468,-33.6924 33.69258,-33.6924 18.60789,0 33.69258,15.0846 33.69258,33.6924 z m -94.50886,0 c 0,18.6077 -15.08468,33.6923 -33.692573,33.6923 -18.6079,0 -33.69258,-15.0846 -33.69258,-33.6923 0,-18.6078 15.08468,-33.6924 33.69258,-33.6924 18.607893,0 33.692573,15.0846 33.692573,33.6924 z m -94.508847,0 c 0,18.6077 -15.084682,33.6923 -33.692576,33.6923 -18.6079,0 -33.69258,-15.0846 -33.69258,-33.6923 0,-18.6078 15.08468,-33.6924 33.69258,-33.6924 18.607894,0 33.692576,15.0846 33.692576,33.6924 z m -94.508852,0 c 0,18.6077 -15.084682,33.6923 -33.692571,33.6923 -18.6079,0 -33.69258,-15.0846 -33.69258,-33.6923 0,-18.6078 15.08468,-33.6924 33.69258,-33.6924 18.607889,0 33.692571,15.0846 33.692571,33.6924 z m 808.283379,57.4444 c 0,2.9011 -2.35172,5.2528 -5.25274,5.2528 -2.901,0 -5.25274,-2.3517 -5.25274,-5.2528 0,-2.901 2.35174,-5.2527 5.25274,-5.2527 2.90102,0 5.25274,2.3517 5.25274,5.2527 z m 868.49508,0 c 0,2.9011 -2.3518,5.2528 -5.2528,5.2528 -2.901,0 -5.2527,-2.3517 -5.2527,-5.2528 0,-2.901 2.3517,-5.2527 5.2527,-5.2527 2.901,0 5.2528,2.3517 5.2528,5.2527 z m 0,-294.8823 c 0,2.9011 -2.3518,5.2528 -5.2528,5.2528 -2.901,0 -5.2527,-2.3517 -5.2527,-5.2528 0,-2.901 2.3517,-5.2527 5.2527,-5.2527 2.901,0 5.2528,2.3517 5.2528,5.2527 z m -868.49508,0 c 0,2.9011 -2.35172,5.2528 -5.25274,5.2528 -2.901,0 -5.25274,-2.3517 -5.25274,-5.2528 0,-2.901 2.35174,-5.2527 5.25274,-5.2527 2.90102,0 5.25274,2.3517 5.25274,5.2527 z m -5.25145,-11.1875 868.49243,0 c 6.1987,0 11.1889,4.9902 11.1889,11.1888 l 0,294.8797 c 0,6.1987 -4.9902,11.1889 -11.1889,11.1889 l -868.49243,0 c -6.19865,0 -11.18889,-4.9902 -11.18889,-11.1889 l 0,-294.8797 c 0,-6.1986 4.99024,-11.1888 11.18889,-11.1888 z m -887.74379,306.0698 c 0,2.9011 -2.35172,5.2528 -5.25274,5.2528 -2.901,0 -5.25274,-2.3517 -5.25274,-5.2528 0,-2.901 2.35174,-5.2527 5.25274,-5.2527 2.90102,0 5.25274,2.3517 5.25274,5.2527 z m 868.49504,0 c 0,2.9011 -2.35172,5.2528 -5.25274,5.2528 -2.901,0 -5.25274,-2.3517 -5.25274,-5.2528 0,-2.901 2.35174,-5.2527 5.25274,-5.2527 2.90102,0 5.25274,2.3517 5.25274,5.2527 z m 0,-294.8823 c 0,2.9011 -2.35172,5.2528 -5.25274,5.2528 -2.901,0 -5.25274,-2.3517 -5.25274,-5.2528 0,-2.901 2.35174,-5.2527 5.25274,-5.2527 2.90102,0 5.25274,2.3517 5.25274,5.2527 z m -868.49504,0 c 0,2.9011 -2.35172,5.2528 -5.25274,5.2528 -2.901,0 -5.25274,-2.3517 -5.25274,-5.2528 0,-2.901 2.35174,-5.2527 5.25274,-5.2527 2.90102,0 5.25274,2.3517 5.25274,5.2527 z m -5.25145,-11.1875 868.49246,0 c 6.19864,0 11.18889,4.9902 11.18889,11.1888 l 0,294.8797 c 0,6.1987 -4.99025,11.1889 -11.18889,11.1889 l -868.49246,0 c -6.19865,0 -11.18889,-4.9902 -11.18889,-11.1889 l 0,-294.8797 c 0,-6.1986 4.99024,-11.1888 11.18889,-11.1888 z m 2041.51227,148.5031 c 2.901,0 5.25,2.3491 5.25,5.25 0,2.901 -2.349,5.25 -5.25,5.25 -2.901,0 -5.25,-2.349 -5.25,-5.25 0,-2.9009 2.349,-5.25 5.25,-5.25 z m -11.1875,-17.2812 0,22.4687 c 0,6.2282 5.0219,11.25 11.25,11.25 l 22.4687,0 0,-5.9375 -11.2187,0 0,-10.5 11.2187,0 0,-5.1562 -12.125,0 0,-12.125 -5.1562,0 0,11.2187 -10.5,0 0,-11.2187 -5.9375,0 z m 16.4375,-24.6563 c 0,2.9011 -2.349,5.25 -5.25,5.25 -2.901,0 -5.25,-2.3489 -5.25,-5.25 0,-2.9009 2.349,-5.25 5.25,-5.25 2.901,0 5.25,2.3491 5.25,5.25 z m 17.2812,-11.1875 -22.4687,0 c -6.2281,0 -11.25,5.0219 -11.25,11.25 l 0,22.4688 5.9375,0 0,-11.2188 10.5,0 0,11.2188 5.1562,0 0,-12.125 12.125,0 0,-5.1563 -11.2187,0 0,-10.5 11.2187,0 0,-5.9375 z m 19.4063,58.375 c 0,-2.9009 2.349,-5.25 5.25,-5.25 2.901,0 5.25,2.3491 5.25,5.25 0,2.901 -2.349,5.25 -5.25,5.25 -2.901,0 -5.25,-2.349 -5.25,-5.25 z m -17.2813,11.1875 22.4688,0 c 6.2281,0 11.25,-5.0218 11.25,-11.25 l 0,-22.4687 -5.9375,0 0,11.2187 -10.5,0 0,-11.2187 -5.1563,0 0,12.125 -12.125,0 0,5.1562 11.2188,0 0,10.5 -11.2188,0 0,5.9375 z m 22.5313,-53.125 c -2.901,0 -5.25,-2.349 -5.25,-5.25 0,-2.9009 2.349,-5.25 5.25,-5.25 2.901,0 5.25,2.3491 5.25,5.25 0,2.901 -2.349,5.25 -5.25,5.25 z m 11.1875,17.2813 0,-22.4688 c 0,-6.2281 -5.0219,-11.25 -11.25,-11.25 l -22.4688,0 0,5.9375 11.2188,0 0,10.5 -11.2188,0 0,5.1563 12.125,0 0,12.125 5.1563,0 0,-11.2188 10.5,0 0,11.2188 5.9375,0 z m -53.125,-94.2188 c 0,2.9011 -2.349,5.25 -5.25,5.25 -2.901,0 -5.25,-2.3489 -5.25,-5.25 0,-2.9009 2.349,-5.25 5.25,-5.25 2.901,0 5.25,2.3491 5.25,5.25 z m 17.2812,-11.1875 -22.4687,0 c -6.2281,0 -11.25,5.0219 -11.25,11.25 l 0,22.4688 5.9375,0 0,-11.2188 10.5,0 0,11.2188 5.1562,0 0,-12.125 12.125,0 0,-5.1563 -11.2187,0 0,-10.5 11.2187,0 0,-5.9375 z m -22.5312,53.125 c 2.901,0 5.25,2.3491 5.25,5.25 0,2.901 -2.349,5.25 -5.25,5.25 -2.901,0 -5.25,-2.349 -5.25,-5.25 0,-2.9009 2.349,-5.25 5.25,-5.25 z m -11.1875,-17.2812 0,22.4687 c 0,6.2282 5.0219,11.25 11.25,11.25 l 22.4687,0 0,-5.9375 -11.2187,0 0,-10.5 11.2187,0 0,-5.1562 -12.125,0 0,-12.125 -5.1562,0 0,11.2187 -10.5,0 0,-11.2187 -5.9375,0 z m 53.125,22.5312 c 0,-2.9009 2.349,-5.25 5.25,-5.25 2.901,0 5.25,2.3491 5.25,5.25 0,2.901 -2.349,5.25 -5.25,5.25 -2.901,0 -5.25,-2.349 -5.25,-5.25 z m -17.2813,11.1875 22.4688,0 c 6.2281,0 11.25,-5.0218 11.25,-11.25 l 0,-22.4687 -5.9375,0 0,11.2187 -10.5,0 0,-11.2187 -5.1563,0 0,12.125 -12.125,0 0,5.1562 11.2188,0 0,10.5 -11.2188,0 0,5.9375 z m 22.5313,-53.125 c -2.901,0 -5.25,-2.349 -5.25,-5.25 0,-2.9009 2.349,-5.25 5.25,-5.25 2.901,0 5.25,2.3491 5.25,5.25 0,2.901 -2.349,5.25 -5.25,5.25 z m 11.1875,17.2813 0,-22.4688 c 0,-6.2281 -5.0219,-11.25 -11.25,-11.25 l -22.4688,0 0,5.9375 11.2188,0 0,10.5 -11.2188,0 0,5.1563 12.125,0 0,12.125 5.1563,0 0,-11.2188 10.5,0 0,11.2188 5.9375,0 z m -81.8438,236.1573 c -40.1861,0 -80.3723,0 -120.5585,0 0,-89.9587 0,-179.9173 0,-269.8761 40.1862,0 80.3724,0 120.5585,0 0,89.9588 0,179.9174 0,269.8761 z M 1602.4927,2754.626 c 40.1861,0 80.3723,0 120.5584,0 0,89.9588 0,179.9174 0,269.8761 -40.1861,0 -80.3723,0 -120.5584,0 0,-89.9587 0,-179.9173 0,-269.8761 z m 1091.2399,149.3176 c 0,40.1862 0,80.3723 0,120.5585 -281.9566,0 -563.9143,0 -845.871,0 0,-40.1862 0,-80.3723 0,-120.5585 281.9567,0 563.9144,0 845.871,0 z" />
    <path
       id="path4563-7-1"
       style="fill:none;stroke:#000000;stroke-width:0.03543307;stroke-miterlimit:4;stroke-opacity:1;stroke-dasharray:none"
       d="m 768.12357,3335.7582 c 0,18.6077 -15.08468,33.6923 -33.69257,33.6923 -18.6079,0 -33.69258,-15.0846 -33.69258,-33.6923 0,-18.6078 15.08468,-33.6924 33.69258,-33.6924 18.60789,0 33.69257,15.0846 33.69257,33.6924 z m -94.50885,0 c 0,18.6077 -15.08469,33.6923 -33.69257,33.6923 -18.6079,0 -33.69258,-15.0846 -33.69258,-33.6923 0,-18.6078 15.08468,-33.6924 33.69258,-33.6924 18.60788,0 33.69257,15.0846 33.69257,33.6924 z m -94.50885,0 c 0,18.6077 -15.08468,33.6923 -33.69257,33.6923 -18.6079,0 -33.69258,-15.0846 -33.69258,-33.6923 0,-18.6078 15.08468,-33.6924 33.69258,-33.6924 18.60789,0 33.69257,15.0846 33.69257,33.6924 z m -94.50885,0 c 0,18.6077 -15.08468,33.6923 -33.69257,33.6923 -18.6079,0 -33.69258,-15.0846 -33.69258,-33.6923 0,-18.6078 15.08468,-33.6924 33.69258,-33.6924 18.60789,0 33.69257,15.0846 33.69257,33.6924 z m -94.50885,0 c 0,18.6077 -15.08468,33.6923 -33.69257,33.6923 -18.6079,0 -33.69258,-15.0846 -33.69258,-33.6923 0,-18.6078 15.08468,-33.6924 33.69258,-33.6924 18.60789,0 33.69257,15.0846 33.69257,33.6924 z m -94.42032,0 c 0,18.6077 -15.08469,33.6923 -33.69258,33.6923 -18.6079,0 -33.69258,-15.0846 -33.69258,-33.6923 0,-18.6078 15.08468,-33.6924 33.69258,-33.6924 18.60789,0 33.69258,15.0846 33.69258,33.6924 z m -94.50886,0 c 0,18.6077 -15.08468,33.6923 -33.69257,33.6923 -18.6079,0 -33.69258,-15.0846 -33.69258,-33.6923 0,-18.6078 15.08468,-33.6924 33.69258,-33.6924 18.60789,0 33.69257,15.0846 33.69257,33.6924 z m -94.50885,0 c 0,18.6077 -15.084681,33.6923 -33.69257,33.6923 -18.6079,0 -33.69258,-15.0846 -33.69258,-33.6923 0,-18.6078 15.08468,-33.6924 33.69258,-33.6924 18.607889,0 33.69257,15.0846 33.69257,33.6924 z m -94.508849,0 c 0,18.6077 -15.0846823,33.6923 -33.692571,33.6923 -18.6079,0 -33.69258,-15.0846 -33.69258,-33.6923 0,-18.6078 15.08468,-33.6924 33.69258,-33.6924 18.6078887,0 33.692571,15.0846 33.692571,33.6924 z m -94.508849,0 c 0,18.6077 -15.084682,33.6923 -33.692572,33.6923 -18.6079,0 -33.69258,-15.0846 -33.69258,-33.6923 0,-18.6078 15.08468,-33.6924 33.69258,-33.6924 18.60789,0 33.692572,15.0846 33.692572,33.6924 z m 878.301338,56.2591 c 0,2.9011 -2.35172,5.2528 -5.25274,5.2528 -2.901,0 -5.25274,-2.3517 -5.25274,-5.2528 0,-2.901 2.35174,-5.2527 5.25274,-5.2527 2.90102,0 5.25274,2.3517 5.25274,5.2527 z m -962.9912,0 c 0,2.9011 -2.35172,5.2528 -5.25274,5.2528 -2.901,0 -5.25274,-2.3517 -5.25274,-5.2528 0,-2.901 2.35174,-5.2527 5.25274,-5.2527 2.90102,0 5.25274,2.3517 5.25274,5.2527 z m 962.9912,-292.5119 c 0,2.9011 -2.35172,5.2528 -5.25274,5.2528 -2.901,0 -5.25274,-2.3517 -5.25274,-5.2528 0,-2.901 2.35174,-5.2527 5.25274,-5.2527 2.90102,0 5.25274,2.3517 5.25274,5.2527 z m -962.9912,0 c 0,2.9011 -2.35172,5.2528 -5.25274,5.2528 -2.901,0 -5.25274,-2.3517 -5.25274,-5.2528 0,-2.901 2.35174,-5.2527 5.25274,-5.2527 2.90102,0 5.25274,2.3517 5.25274,5.2527 z m -5.18747,-11.1875 962.86066,0 c 6.23409,0 11.25287,5.0188 11.25287,11.2528 l 0,292.3813 c 0,6.2341 -5.01878,11.2529 -11.25287,11.2529 l -962.86066,0 c -6.23409,0 -11.25287,-5.0188 -11.25287,-11.2529 l 0,-292.3813 c 0,-6.234 5.01878,-11.2528 11.25287,-11.2528 z m 1955.67009,303.6994 c 0,2.9011 -2.3517,5.2528 -5.2527,5.2528 -2.901,0 -5.2528,-2.3517 -5.2528,-5.2528 0,-2.901 2.3518,-5.2527 5.2528,-5.2527 2.901,0 5.2527,2.3517 5.2527,5.2527 z m -962.99122,0 c 0,2.9011 -2.35172,5.2528 -5.25274,5.2528 -2.901,0 -5.25274,-2.3517 -5.25274,-5.2528 0,-2.901 2.35174,-5.2527 5.25274,-5.2527 2.90102,0 5.25274,2.3517 5.25274,5.2527 z m 962.99122,-292.5119 c 0,2.9011 -2.3517,5.2528 -5.2527,5.2528 -2.901,0 -5.2528,-2.3517 -5.2528,-5.2528 0,-2.901 2.3518,-5.2527 5.2528,-5.2527 2.901,0 5.2527,2.3517 5.2527,5.2527 z m -962.99122,0 c 0,2.9011 -2.35172,5.2528 -5.25274,5.2528 -2.901,0 -5.25274,-2.3517 -5.25274,-5.2528 0,-2.901 2.35174,-5.2527 5.25274,-5.2527 2.90102,0 5.25274,2.3517 5.25274,5.2527 z m -5.18747,-11.1875 962.86069,0 c 6.2341,0 11.2529,5.0188 11.2529,11.2528 l 0,292.3813 c 0,6.2341 -5.0188,11.2529 -11.2529,11.2529 l -962.86069,0 c -6.23409,0 -11.25287,-5.0188 -11.25287,-11.2529 l 0,-292.3813 c 0,-6.234 5.01878,-11.2528 11.25287,-11.2528 z m 1242.94929,147.318 c 2.901,0 5.25,2.349 5.25,5.25 0,2.901 -2.349,5.25 -5.25,5.25 -2.901,0 -5.25,-2.349 -5.25,-5.25 0,-2.901 2.349,-5.25 5.25,-5.25 z m -11.1875,-17.2813 0,22.4688 c 0,6.2281 5.0218,11.25 11.25,11.25 l 22.4687,0 0,-5.9375 -11.2187,0 0,-10.5 11.2187,0 0,-5.1563 -12.125,0 0,-12.125 -5.1562,0 0,11.2188 -10.5,0 0,-11.2188 -5.9375,0 z m 16.4375,-24.6562 c 0,2.901 -2.349,5.25 -5.25,5.25 -2.901,0 -5.25,-2.349 -5.25,-5.25 0,-2.901 2.349,-5.25 5.25,-5.25 2.901,0 5.25,2.349 5.25,5.25 z m 17.2812,-11.1875 -22.4687,0 c -6.2282,0 -11.25,5.0219 -11.25,11.25 l 0,22.4687 5.9375,0 0,-11.2187 10.5,0 0,11.2187 5.1562,0 0,-12.125 12.125,0 0,-5.1562 -11.2187,0 0,-10.5 11.2187,0 0,-5.9375 z m 19.4063,58.375 c 0,-2.901 2.349,-5.25 5.25,-5.25 2.901,0 5.25,2.349 5.25,5.25 0,2.901 -2.349,5.25 -5.25,5.25 -2.901,0 -5.25,-2.349 -5.25,-5.25 z m -17.2813,11.1875 22.4688,0 c 6.2281,0 11.25,-5.0219 11.25,-11.25 l 0,-22.4688 -5.9375,0 0,11.2188 -10.5,0 0,-11.2188 -5.1563,0 0,12.125 -12.125,0 0,5.1563 11.2188,0 0,10.5 -11.2188,0 0,5.9375 z m 22.5313,-53.125 c -2.901,0 -5.25,-2.349 -5.25,-5.25 0,-2.901 2.349,-5.25 5.25,-5.25 2.901,0 5.25,2.349 5.25,5.25 0,2.901 -2.349,5.25 -5.25,5.25 z m 11.1875,17.2812 0,-22.4687 c 0,-6.2282 -5.0219,-11.25 -11.25,-11.25 l -22.4688,0 0,5.9375 11.2188,0 0,10.5 -11.2188,0 0,5.1562 12.125,0 0,12.125 5.1563,0 0,-11.2187 10.5,0 0,11.2187 5.9375,0 z m -53.125,-94.2187 c 0,2.901 -2.349,5.25 -5.25,5.25 -2.901,0 -5.25,-2.349 -5.25,-5.25 0,-2.901 2.349,-5.25 5.25,-5.25 2.901,0 5.25,2.349 5.25,5.25 z m 17.2812,-11.1875 -22.4687,0 c -6.2282,0 -11.25,5.0219 -11.25,11.25 l 0,22.4687 5.9375,0 0,-11.2187 10.5,0 0,11.2187 5.1562,0 0,-12.125 12.125,0 0,-5.1562 -11.2187,0 0,-10.5 11.2187,0 0,-5.9375 z m -22.5312,53.125 c 2.901,0 5.25,2.349 5.25,5.25 0,2.901 -2.349,5.25 -5.25,5.25 -2.901,0 -5.25,-2.349 -5.25,-5.25 0,-2.901 2.349,-5.25 5.25,-5.25 z m -11.1875,-17.2813 0,22.4688 c 0,6.2281 5.0218,11.25 11.25,11.25 l 22.4687,0 0,-5.9375 -11.2187,0 0,-10.5 11.2187,0 0,-5.1563 -12.125,0 0,-12.125 -5.1562,0 0,11.2188 -10.5,0 0,-11.2188 -5.9375,0 z m 53.125,22.5313 c 0,-2.901 2.349,-5.25 5.25,-5.25 2.901,0 5.25,2.349 5.25,5.25 0,2.901 -2.349,5.25 -5.25,5.25 -2.901,0 -5.25,-2.349 -5.25,-5.25 z m -17.2813,11.1875 22.4688,0 c 6.2281,0 11.25,-5.0219 11.25,-11.25 l 0,-22.4688 -5.9375,0 0,11.2188 -10.5,0 0,-11.2188 -5.1563,0 0,12.125 -12.125,0 0,5.1563 11.2188,0 0,10.5 -11.2188,0 0,5.9375 z m 22.5313,-53.125 c -2.901,0 -5.25,-2.349 -5.25,-5.25 0,-2.901 2.349,-5.25 5.25,-5.25 2.9009,0 5.25,2.349 5.25,5.25 0,2.901 -2.3491,5.25 -5.25,5.25 z m 11.1875,17.2812 0,-22.4687 c 0,-6.2282 -5.0219,-11.25 -11.25,-11.25 l -22.4688,0 0,5.9375 11.2188,0 0,10.5 -11.2188,0 0,5.1562 12.125,0 0,12.125 5.1563,0 0,-11.2187 10.5,0 0,11.2187 5.9375,0 z m -81.8438,236.1573 c -40.1862,0 -80.3723,0 -120.5585,0 0,-89.9587 0,-179.9173 0,-269.876 40.1862,0 80.3723,0 120.5585,0 0,89.9587 0,179.9173 0,269.876 z m -243.2419,-269.876 c 40.1861,0 80.3723,0 120.5584,0 0,89.9587 0,179.9173 0,269.876 -40.1861,0 -80.3723,0 -120.5584,0 0,-89.9587 0,-179.9173 0,-269.876 z m 1185.7399,149.3175 c 0,40.1862 0,80.3724 0,120.5585 -313.4573,0 -626.9137,0 -940.371,0 0,-40.1861 0,-80.3723 0,-120.5585 313.4573,0 626.9137,0 940.371,0 z" />
  </g>
</svg>
